<?xml version="1.0" encoding="UTF-8" standalone="no"?>
<!-- Generator: Adobe Illustrator 18.1.1, SVG Export Plug-In . SVG Version: 6.00 Build 0)  -->

<svg
   version="1.1"
   id="Capa_1"
   x="0px"
   y="0px"
   viewBox="0 0 292.377 292.377"
   style="enable-background:new 0 0 292.377 292.377;"
   xml:space="preserve"
   sodipodi:docname="add_image.svg"
   inkscape:version="1.2 (dc2aedaf03, 2022-05-15)"
   xmlns:inkscape="http://www.inkscape.org/namespaces/inkscape"
   xmlns:sodipodi="http://sodipodi.sourceforge.net/DTD/sodipodi-0.dtd"
   xmlns="http://www.w3.org/2000/svg"
   xmlns:svg="http://www.w3.org/2000/svg"><defs
   id="defs39" /><sodipodi:namedview
   id="namedview37"
   pagecolor="#ffffff"
   bordercolor="#000000"
   borderopacity="0.25"
   inkscape:showpageshadow="2"
   inkscape:pageopacity="0.0"
   inkscape:pagecheckerboard="0"
   inkscape:deskcolor="#d1d1d1"
   showgrid="false"
   inkscape:zoom="2.8627421"
   inkscape:cx="72.308294"
   inkscape:cy="135.18507"
   inkscape:window-width="1920"
   inkscape:window-height="1017"
   inkscape:window-x="-8"
   inkscape:window-y="-8"
   inkscape:window-maximized="1"
   inkscape:current-layer="g4" />
<g
   id="g4">
	<path
   style="fill:#ffffff;fill-opacity:1"
   d="M 146.188,0 C 65.576,0 0,65.582 0,146.188 c 0,80.606 65.576,146.188 146.188,146.188 80.612,0 146.188,-65.582 146.188,-146.188 C 292.376,65.582 226.801,0 146.188,0 Z m 48.774,152.155 H 154.92139 152.156 v 42.8 c 0,3.3 -2.667,5.967 -5.967,5.967 -3.3,0 -5.967,-2.667 -5.967,-5.967 v -42.8 H 97.415 c -3.294,0 -5.967,-2.673 -5.967,-5.967 0,-3.294 2.673,-5.967 5.967,-5.967 h 42.806 V 97.415 c 0,-3.294 2.667,-5.967 5.967,-5.967 3.3,0 5.967,2.673 5.967,5.967 v 42.806 h 42.806 c 3.3,0 5.967,2.673 5.967,5.967 0,3.294 -2.667,5.967 -5.966,5.967 z"
   id="path2"
   sodipodi:nodetypes="ssssssccssscssscssscsss" />
<path
   style="fill:#888888;fill-opacity:1;stroke-width:0.399616"
   d="m 143.19139,207.78261 c -1.80462,-1.12081 -2.87222,-2.47198 -3.35621,-4.24766 -0.29225,-1.0722 -0.43642,-9.65682 -0.43792,-26.075 l -0.002,-24.47652 -24.47653,-0.002 c -16.378826,-8e-4 -25.005362,-0.14603 -26.075,-0.43686 -2.901102,-0.78879 -4.99521,-3.45271 -4.99521,-6.3544 0,-2.9017 2.094109,-5.5656 4.99521,-6.35441 1.069638,-0.29084 9.696174,-0.43535 26.075,-0.43685 l 24.47653,-0.002 0.002,-24.47654 c 8e-4,-16.378816 0.14602,-25.005352 0.43685,-26.07499 0.78864,-2.901102 3.45254,-4.995212 6.35424,-4.995212 2.90169,0 5.56561,2.09411 6.3544,4.995212 0.29083,1.069638 0.43537,9.696174 0.43685,26.07499 l 0.002,24.47654 24.47653,0.002 c 16.37883,8e-4 25.00536,0.14601 26.075,0.43684 2.90111,0.7888 4.9952,3.45272 4.9952,6.35441 0,2.91524 -2.10421,5.54219 -5.10751,6.37629 -0.94745,0.26313 -10.35866,0.41356 -25.96269,0.41498 l -24.47653,0.002 -0.002,24.47652 c -8e-4,15.60404 -0.15184,25.01524 -0.41497,25.9627 -0.4915,1.76974 -2.04117,3.71287 -3.60673,4.52245 -1.57,0.81187 -4.32271,0.73431 -5.76668,-0.16249 z"
   id="path6604" /></g>
<g
   id="g6">
</g>
<g
   id="g8">
</g>
<g
   id="g10">
</g>
<g
   id="g12">
</g>
<g
   id="g14">
</g>
<g
   id="g16">
</g>
<g
   id="g18">
</g>
<g
   id="g20">
</g>
<g
   id="g22">
</g>
<g
   id="g24">
</g>
<g
   id="g26">
</g>
<g
   id="g28">
</g>
<g
   id="g30">
</g>
<g
   id="g32">
</g>
<g
   id="g34">
</g>
</svg>
