<svg width="552" height="600" viewBox="0 0 552 600" fill="none" xmlns="http://www.w3.org/2000/svg">
<rect width="152.468" height="393.322" fill="#14213D"/>
<rect x="2.5" y="597.499" width="159.499" height="372.274" transform="rotate(-90 2.5 597.499)" fill="white" stroke="#14213D" stroke-width="5"/>
<path d="M159.265 504.12L151.185 532H147.105L140.625 509.56L133.905 532L129.865 532.04L122.065 504.12H125.945L132.025 527.76L138.745 504.12H142.825L149.225 527.68L155.345 504.12H159.265ZM188.728 504.12V532H185.088V519.36H170.888V532H167.248V504.12H170.888V516.36H185.088V504.12H188.728ZM202.583 504.12V532H198.943V504.12H202.583ZM229.947 504.12V507.08H222.347V532H218.707V507.08H211.067V504.12H229.947ZM242.068 507.08V516.4H252.228V519.4H242.068V529H253.428V532H238.428V504.08H253.428V507.08H242.068Z" fill="#14213D"/>
<path d="M159.265 504.12L159.745 504.259L159.93 503.62H159.265V504.12ZM151.185 532V532.5H151.56L151.665 532.139L151.185 532ZM147.105 532L146.624 532.139L146.728 532.5H147.105V532ZM140.625 509.56L141.105 509.421L140.633 507.788L140.146 509.417L140.625 509.56ZM133.905 532L133.909 532.5L134.278 532.496L134.384 532.143L133.905 532ZM129.865 532.04L129.383 532.175L129.486 532.544L129.869 532.54L129.865 532.04ZM122.065 504.12V503.62H121.406L121.583 504.255L122.065 504.12ZM125.945 504.12L126.429 503.995L126.332 503.62H125.945V504.12ZM132.025 527.76L131.54 527.885L132 529.674L132.505 527.897L132.025 527.76ZM138.745 504.12V503.62H138.367L138.264 503.983L138.745 504.12ZM142.825 504.12L143.307 503.989L143.207 503.62H142.825V504.12ZM149.225 527.68L148.742 527.811L149.235 529.627L149.708 527.806L149.225 527.68ZM155.345 504.12V503.62H154.958L154.861 503.994L155.345 504.12ZM158.784 503.981L150.704 531.861L151.665 532.139L159.745 504.259L158.784 503.981ZM151.185 531.5H147.105V532.5H151.185V531.5ZM147.585 531.861L141.105 509.421L140.144 509.699L146.624 532.139L147.585 531.861ZM140.146 509.417L133.426 531.857L134.384 532.143L141.104 509.703L140.146 509.417ZM133.9 531.5L129.86 531.54L129.869 532.54L133.909 532.5L133.9 531.5ZM130.346 531.905L122.546 503.985L121.583 504.255L129.383 532.175L130.346 531.905ZM122.065 504.62H125.945V503.62H122.065V504.62ZM125.46 504.245L131.54 527.885L132.509 527.635L126.429 503.995L125.46 504.245ZM132.505 527.897L139.225 504.257L138.264 503.983L131.544 527.623L132.505 527.897ZM138.745 504.62H142.825V503.62H138.745V504.62ZM142.342 504.251L148.742 527.811L149.707 527.549L143.307 503.989L142.342 504.251ZM149.708 527.806L155.828 504.246L154.861 503.994L148.741 527.554L149.708 527.806ZM155.345 504.62H159.265V503.62H155.345V504.62ZM188.728 504.12H189.228V503.62H188.728V504.12ZM188.728 532V532.5H189.228V532H188.728ZM185.088 532H184.588V532.5H185.088V532ZM185.088 519.36H185.588V518.86H185.088V519.36ZM170.888 519.36V518.86H170.388V519.36H170.888ZM170.888 532V532.5H171.388V532H170.888ZM167.248 532H166.748V532.5H167.248V532ZM167.248 504.12V503.62H166.748V504.12H167.248ZM170.888 504.12H171.388V503.62H170.888V504.12ZM170.888 516.36H170.388V516.86H170.888V516.36ZM185.088 516.36V516.86H185.588V516.36H185.088ZM185.088 504.12V503.62H184.588V504.12H185.088ZM188.228 504.12V532H189.228V504.12H188.228ZM188.728 531.5H185.088V532.5H188.728V531.5ZM185.588 532V519.36H184.588V532H185.588ZM185.088 518.86H170.888V519.86H185.088V518.86ZM170.388 519.36V532H171.388V519.36H170.388ZM170.888 531.5H167.248V532.5H170.888V531.5ZM167.748 532V504.12H166.748V532H167.748ZM167.248 504.62H170.888V503.62H167.248V504.62ZM170.388 504.12V516.36H171.388V504.12H170.388ZM170.888 516.86H185.088V515.86H170.888V516.86ZM185.588 516.36V504.12H184.588V516.36H185.588ZM185.088 504.62H188.728V503.62H185.088V504.62ZM202.583 504.12H203.083V503.62H202.583V504.12ZM202.583 532V532.5H203.083V532H202.583ZM198.943 532H198.443V532.5H198.943V532ZM198.943 504.12V503.62H198.443V504.12H198.943ZM202.083 504.12V532H203.083V504.12H202.083ZM202.583 531.5H198.943V532.5H202.583V531.5ZM199.443 532V504.12H198.443V532H199.443ZM198.943 504.62H202.583V503.62H198.943V504.62ZM229.947 504.12H230.447V503.62H229.947V504.12ZM229.947 507.08V507.58H230.447V507.08H229.947ZM222.347 507.08V506.58H221.847V507.08H222.347ZM222.347 532V532.5H222.847V532H222.347ZM218.707 532H218.207V532.5H218.707V532ZM218.707 507.08H219.207V506.58H218.707V507.08ZM211.067 507.08H210.567V507.58H211.067V507.08ZM211.067 504.12V503.62H210.567V504.12H211.067ZM229.447 504.12V507.08H230.447V504.12H229.447ZM229.947 506.58H222.347V507.58H229.947V506.58ZM221.847 507.08V532H222.847V507.08H221.847ZM222.347 531.5H218.707V532.5H222.347V531.5ZM219.207 532V507.08H218.207V532H219.207ZM218.707 506.58H211.067V507.58H218.707V506.58ZM211.567 507.08V504.12H210.567V507.08H211.567ZM211.067 504.62H229.947V503.62H211.067V504.62ZM242.068 507.08V506.58H241.568V507.08H242.068ZM242.068 516.4H241.568V516.9H242.068V516.4ZM252.228 516.4H252.728V515.9H252.228V516.4ZM252.228 519.4V519.9H252.728V519.4H252.228ZM242.068 519.4V518.9H241.568V519.4H242.068ZM242.068 529H241.568V529.5H242.068V529ZM253.428 529H253.928V528.5H253.428V529ZM253.428 532V532.5H253.928V532H253.428ZM238.428 532H237.928V532.5H238.428V532ZM238.428 504.08V503.58H237.928V504.08H238.428ZM253.428 504.08H253.928V503.58H253.428V504.08ZM253.428 507.08V507.58H253.928V507.08H253.428ZM241.568 507.08V516.4H242.568V507.08H241.568ZM242.068 516.9H252.228V515.9H242.068V516.9ZM251.728 516.4V519.4H252.728V516.4H251.728ZM252.228 518.9H242.068V519.9H252.228V518.9ZM241.568 519.4V529H242.568V519.4H241.568ZM242.068 529.5H253.428V528.5H242.068V529.5ZM252.928 529V532H253.928V529H252.928ZM253.428 531.5H238.428V532.5H253.428V531.5ZM238.928 532V504.08H237.928V532H238.928ZM238.428 504.58H253.428V503.58H238.428V504.58ZM252.928 504.08V507.08H253.928V504.08H252.928ZM253.428 506.58H242.068V507.58H253.428V506.58Z" fill="black"/>
<rect x="177.714" y="390.822" width="183.752" height="192.702" transform="rotate(-90 177.714 390.822)" fill="white" stroke="#14213D" stroke-width="5"/>
<path d="M251.198 313L244.558 301.6H240.158V313H236.518V285.12H245.518C247.624 285.12 249.398 285.48 250.838 286.2C252.304 286.92 253.398 287.893 254.118 289.12C254.838 290.347 255.198 291.747 255.198 293.32C255.198 295.24 254.638 296.933 253.518 298.4C252.424 299.867 250.771 300.84 248.558 301.32L255.558 313H251.198ZM240.158 298.68H245.518C247.491 298.68 248.971 298.2 249.958 297.24C250.944 296.253 251.438 294.947 251.438 293.32C251.438 291.667 250.944 290.387 249.958 289.48C248.998 288.573 247.518 288.12 245.518 288.12H240.158V298.68ZM268.493 288.08V297.4H278.653V300.4H268.493V310H279.853V313H264.853V285.08H279.853V288.08H268.493ZM298.041 285.12C301.081 285.12 303.708 285.693 305.921 286.84C308.161 287.96 309.868 289.573 311.041 291.68C312.241 293.787 312.841 296.267 312.841 299.12C312.841 301.973 312.241 304.453 311.041 306.56C309.868 308.64 308.161 310.24 305.921 311.36C303.708 312.453 301.081 313 298.041 313H289.361V285.12H298.041ZM298.041 310C301.641 310 304.388 309.053 306.281 307.16C308.175 305.24 309.121 302.56 309.121 299.12C309.121 295.653 308.161 292.947 306.241 291C304.348 289.053 301.615 288.08 298.041 288.08H293.001V310H298.041Z" fill="#14213D"/>
<path d="M251.198 313L250.765 313.252L250.91 313.5H251.198V313ZM244.558 301.6L244.99 301.348L244.845 301.1H244.558V301.6ZM240.158 301.6V301.1H239.658V301.6H240.158ZM240.158 313V313.5H240.658V313H240.158ZM236.518 313H236.018V313.5H236.518V313ZM236.518 285.12V284.62H236.018V285.12H236.518ZM250.838 286.2L250.614 286.647L250.617 286.649L250.838 286.2ZM253.518 298.4L253.12 298.097L253.117 298.101L253.518 298.4ZM248.558 301.32L248.452 300.831L247.77 300.979L248.129 301.577L248.558 301.32ZM255.558 313V313.5H256.44L255.986 312.743L255.558 313ZM240.158 298.68H239.658V299.18H240.158V298.68ZM249.958 297.24L250.306 297.598L250.311 297.594L249.958 297.24ZM249.958 289.48L249.614 289.844L249.619 289.848L249.958 289.48ZM240.158 288.12V287.62H239.658V288.12H240.158ZM251.63 312.748L244.99 301.348L244.125 301.852L250.765 313.252L251.63 312.748ZM244.558 301.1H240.158V302.1H244.558V301.1ZM239.658 301.6V313H240.658V301.6H239.658ZM240.158 312.5H236.518V313.5H240.158V312.5ZM237.018 313V285.12H236.018V313H237.018ZM236.518 285.62H245.518V284.62H236.518V285.62ZM245.518 285.62C247.57 285.62 249.261 285.971 250.614 286.647L251.061 285.753C249.534 284.989 247.679 284.62 245.518 284.62V285.62ZM250.617 286.649C252.009 287.332 253.023 288.243 253.686 289.373L254.549 288.867C253.772 287.544 252.599 286.508 251.058 285.751L250.617 286.649ZM253.686 289.373C254.357 290.515 254.698 291.826 254.698 293.32H255.698C255.698 291.667 255.318 290.178 254.549 288.867L253.686 289.373ZM254.698 293.32C254.698 295.135 254.171 296.721 253.12 298.097L253.915 298.703C255.104 297.146 255.698 295.345 255.698 293.32H254.698ZM253.117 298.101C252.111 299.45 250.576 300.371 248.452 300.831L248.663 301.809C250.966 301.309 252.737 300.284 253.918 298.699L253.117 298.101ZM248.129 301.577L255.129 313.257L255.986 312.743L248.986 301.063L248.129 301.577ZM255.558 312.5H251.198V313.5H255.558V312.5ZM240.158 299.18H245.518V298.18H240.158V299.18ZM245.518 299.18C247.565 299.18 249.192 298.682 250.306 297.598L249.609 296.882C248.749 297.718 247.417 298.18 245.518 298.18V299.18ZM250.311 297.594C251.407 296.498 251.938 295.056 251.938 293.32H250.938C250.938 294.838 250.481 296.009 249.604 296.886L250.311 297.594ZM251.938 293.32C251.938 291.562 251.409 290.135 250.296 289.112L249.619 289.848C250.479 290.639 250.938 291.771 250.938 293.32H251.938ZM250.301 289.116C249.21 288.086 247.581 287.62 245.518 287.62V288.62C247.454 288.62 248.785 289.06 249.614 289.844L250.301 289.116ZM245.518 287.62H240.158V288.62H245.518V287.62ZM239.658 288.12V298.68H240.658V288.12H239.658ZM268.493 288.08V287.58H267.993V288.08H268.493ZM268.493 297.4H267.993V297.9H268.493V297.4ZM278.653 297.4H279.153V296.9H278.653V297.4ZM278.653 300.4V300.9H279.153V300.4H278.653ZM268.493 300.4V299.9H267.993V300.4H268.493ZM268.493 310H267.993V310.5H268.493V310ZM279.853 310H280.353V309.5H279.853V310ZM279.853 313V313.5H280.353V313H279.853ZM264.853 313H264.353V313.5H264.853V313ZM264.853 285.08V284.58H264.353V285.08H264.853ZM279.853 285.08H280.353V284.58H279.853V285.08ZM279.853 288.08V288.58H280.353V288.08H279.853ZM267.993 288.08V297.4H268.993V288.08H267.993ZM268.493 297.9H278.653V296.9H268.493V297.9ZM278.153 297.4V300.4H279.153V297.4H278.153ZM278.653 299.9H268.493V300.9H278.653V299.9ZM267.993 300.4V310H268.993V300.4H267.993ZM268.493 310.5H279.853V309.5H268.493V310.5ZM279.353 310V313H280.353V310H279.353ZM279.853 312.5H264.853V313.5H279.853V312.5ZM265.353 313V285.08H264.353V313H265.353ZM264.853 285.58H279.853V284.58H264.853V285.58ZM279.353 285.08V288.08H280.353V285.08H279.353ZM279.853 287.58H268.493V288.58H279.853V287.58ZM305.921 286.84L305.691 287.284L305.698 287.287L305.921 286.84ZM311.041 291.68L310.604 291.923L310.607 291.927L311.041 291.68ZM311.041 306.56L310.607 306.313L310.606 306.314L311.041 306.56ZM305.921 311.36L306.143 311.808L306.145 311.807L305.921 311.36ZM289.361 313H288.861V313.5H289.361V313ZM289.361 285.12V284.62H288.861V285.12H289.361ZM306.281 307.16L306.635 307.514L306.637 307.511L306.281 307.16ZM306.241 291L305.883 291.349L305.885 291.351L306.241 291ZM293.001 288.08V287.58H292.501V288.08H293.001ZM293.001 310H292.501V310.5H293.001V310ZM298.041 285.62C301.019 285.62 303.563 286.181 305.691 287.284L306.151 286.396C303.853 285.205 301.144 284.62 298.041 284.62V285.62ZM305.698 287.287C307.851 288.364 309.482 289.908 310.604 291.923L311.478 291.437C310.254 289.239 308.471 287.556 306.145 286.393L305.698 287.287ZM310.607 291.927C311.757 293.946 312.341 296.338 312.341 299.12H313.341C313.341 296.195 312.726 293.627 311.476 291.433L310.607 291.927ZM312.341 299.12C312.341 301.902 311.757 304.294 310.607 306.313L311.476 306.807C312.726 304.613 313.341 302.045 313.341 299.12H312.341ZM310.606 306.314C309.484 308.303 307.853 309.835 305.698 310.913L306.145 311.807C308.469 310.645 310.252 308.977 311.477 306.806L310.606 306.314ZM305.7 310.912C303.569 311.964 301.022 312.5 298.041 312.5V313.5C301.141 313.5 303.846 312.943 306.143 311.808L305.7 310.912ZM298.041 312.5H289.361V313.5H298.041V312.5ZM289.861 313V285.12H288.861V313H289.861ZM289.361 285.62H298.041V284.62H289.361V285.62ZM298.041 310.5C301.727 310.5 304.619 309.529 306.635 307.514L305.928 306.806C304.157 308.577 301.556 309.5 298.041 309.5V310.5ZM306.637 307.511C308.646 305.474 309.621 302.653 309.621 299.12H308.621C308.621 302.467 307.703 305.006 305.925 306.809L306.637 307.511ZM309.621 299.12C309.621 295.559 308.633 292.712 306.597 290.649L305.885 291.351C307.69 293.181 308.621 295.748 308.621 299.12H309.621ZM306.6 290.651C304.585 288.58 301.705 287.58 298.041 287.58V288.58C301.524 288.58 304.111 289.527 305.883 291.349L306.6 290.651ZM298.041 287.58H293.001V288.58H298.041V287.58ZM292.501 288.08V310H293.501V288.08H292.501ZM293.001 310.5H298.041V309.5H293.001V310.5Z" fill="black"/>
<rect x="177.226" y="161.999" width="159.499" height="372.274" transform="rotate(-90 177.226 161.999)" fill="white" stroke="#14213D" stroke-width="5"/>
<path d="M308.895 76.2C308.122 74.5733 307.002 73.32 305.535 72.44C304.069 71.5333 302.362 71.08 300.415 71.08C298.469 71.08 296.709 71.5333 295.135 72.44C293.589 73.32 292.362 74.6 291.455 76.28C290.575 77.9333 290.135 79.8533 290.135 82.04C290.135 84.2267 290.575 86.1467 291.455 87.8C292.362 89.4533 293.589 90.7333 295.135 91.64C296.709 92.52 298.469 92.96 300.415 92.96C303.135 92.96 305.375 92.1467 307.135 90.52C308.895 88.8933 309.922 86.6933 310.215 83.92H299.095V80.96H314.095V83.76C313.882 86.0533 313.162 88.16 311.935 90.08C310.709 91.9733 309.095 93.48 307.095 94.6C305.095 95.6933 302.869 96.24 300.415 96.24C297.829 96.24 295.469 95.64 293.335 94.44C291.202 93.2133 289.509 91.52 288.255 89.36C287.029 87.2 286.415 84.76 286.415 82.04C286.415 79.32 287.029 76.88 288.255 74.72C289.509 72.5333 291.202 70.84 293.335 69.64C295.469 68.4133 297.829 67.8 300.415 67.8C303.375 67.8 305.989 68.5333 308.255 70C310.549 71.4667 312.215 73.5333 313.255 76.2H308.895ZM341.588 96L334.948 84.6H330.548V96H326.908V68.12H335.908C338.015 68.12 339.788 68.48 341.228 69.2C342.695 69.92 343.788 70.8933 344.508 72.12C345.228 73.3467 345.588 74.7467 345.588 76.32C345.588 78.24 345.028 79.9333 343.908 81.4C342.815 82.8667 341.161 83.84 338.948 84.32L345.948 96H341.588ZM330.548 81.68H335.908C337.881 81.68 339.361 81.2 340.348 80.24C341.335 79.2533 341.828 77.9467 341.828 76.32C341.828 74.6667 341.335 73.3867 340.348 72.48C339.388 71.5733 337.908 71.12 335.908 71.12H330.548V81.68ZM362.884 71.08V80.4H373.044V83.4H362.884V93H374.244V96H359.244V68.08H374.244V71.08H362.884ZM391.392 71.08V80.4H401.552V83.4H391.392V93H402.752V96H387.752V68.08H402.752V71.08H391.392ZM438.18 96H434.54L419.9 73.8V96H416.26V68.08H419.9L434.54 90.24V68.08H438.18V96Z" fill="#14213D"/>
<path d="M308.895 76.2L308.444 76.4147L308.579 76.7H308.895V76.2ZM305.535 72.44L305.272 72.8653L305.278 72.8687L305.535 72.44ZM295.135 72.44L295.383 72.8746L295.385 72.8732L295.135 72.44ZM291.455 76.28L291.015 76.0425L291.014 76.0451L291.455 76.28ZM291.455 87.8L291.014 88.0349L291.017 88.0404L291.455 87.8ZM295.135 91.64L294.882 92.0714L294.891 92.0764L295.135 91.64ZM307.135 90.52L307.475 90.8872L307.135 90.52ZM310.215 83.92L310.713 83.9726L310.771 83.42H310.215V83.92ZM299.095 83.92H298.595V84.42H299.095V83.92ZM299.095 80.96V80.46H298.595V80.96H299.095ZM314.095 80.96H314.595V80.46H314.095V80.96ZM314.095 83.76L314.593 83.8063L314.595 83.7832V83.76H314.095ZM311.935 90.08L312.355 90.3519L312.357 90.3492L311.935 90.08ZM307.095 94.6L307.335 95.0387L307.34 95.0363L307.095 94.6ZM293.335 94.44L293.086 94.8735L293.09 94.8758L293.335 94.44ZM288.255 89.36L287.821 89.6069L287.823 89.6109L288.255 89.36ZM288.255 74.72L287.822 74.4714L287.821 74.4731L288.255 74.72ZM293.335 69.64L293.58 70.0758L293.585 70.0735L293.335 69.64ZM308.255 70L307.984 70.4198L307.986 70.4212L308.255 70ZM313.255 76.2V76.7H313.987L313.721 76.0183L313.255 76.2ZM309.347 75.9853C308.534 74.2747 307.348 72.9447 305.793 72.0113L305.278 72.8687C306.656 73.6953 307.71 74.872 308.444 76.4147L309.347 75.9853ZM305.798 72.0147C304.243 71.0531 302.443 70.58 300.415 70.58V71.58C302.281 71.58 303.895 72.0135 305.272 72.8653L305.798 72.0147ZM300.415 70.58C298.388 70.58 296.54 71.0532 294.886 72.0068L295.385 72.8732C296.877 72.0134 298.55 71.58 300.415 71.58V70.58ZM294.888 72.0054C293.254 72.9352 291.963 74.2863 291.015 76.0425L291.895 76.5175C292.761 74.9137 293.923 73.7048 295.383 72.8746L294.888 72.0054ZM291.014 76.0451C290.089 77.782 289.635 79.7852 289.635 82.04H290.635C290.635 79.9215 291.061 78.0847 291.897 76.5149L291.014 76.0451ZM289.635 82.04C289.635 84.2948 290.089 86.298 291.014 88.0349L291.897 87.5651C291.061 85.9953 290.635 84.1585 290.635 82.04H289.635ZM291.017 88.0404C291.965 89.7687 293.254 91.1166 294.882 92.0713L295.388 91.2087C293.924 90.3501 292.759 89.138 291.894 87.5596L291.017 88.0404ZM294.891 92.0764C296.545 93.0014 298.39 93.46 300.415 93.46V92.46C298.547 92.46 296.872 92.0386 295.379 91.2036L294.891 92.0764ZM300.415 93.46C303.243 93.46 305.61 92.6109 307.475 90.8872L306.796 90.1528C305.141 91.6825 303.028 92.46 300.415 92.46V93.46ZM307.475 90.8872C309.338 89.165 310.409 86.8456 310.713 83.9726L309.718 83.8674C309.435 86.5411 308.453 88.6216 306.796 90.1528L307.475 90.8872ZM310.215 83.42H299.095V84.42H310.215V83.42ZM299.595 83.92V80.96H298.595V83.92H299.595ZM299.095 81.46H314.095V80.46H299.095V81.46ZM313.595 80.96V83.76H314.595V80.96H313.595ZM313.597 83.7137C313.391 85.9286 312.697 87.9587 311.514 89.8108L312.357 90.3492C313.627 88.3613 314.373 86.1781 314.593 83.8063L313.597 83.7137ZM311.516 89.8081C310.334 91.6321 308.781 93.0828 306.851 94.1637L307.34 95.0363C309.409 93.8772 311.083 92.3146 312.355 90.3519L311.516 89.8081ZM306.855 94.1613C304.935 95.2114 302.791 95.74 300.415 95.74V96.74C302.946 96.74 305.256 96.1753 307.335 95.0387L306.855 94.1613ZM300.415 95.74C297.909 95.74 295.635 95.1597 293.58 94.0042L293.09 94.8758C295.303 96.1203 297.748 96.74 300.415 96.74V95.74ZM293.585 94.0065C291.528 92.8243 289.898 91.1944 288.688 89.1091L287.823 89.6109C289.12 91.8456 290.876 93.6024 293.086 94.8735L293.585 94.0065ZM288.69 89.1131C287.51 87.0354 286.915 84.6819 286.915 82.04H285.915C285.915 84.8381 286.547 87.3646 287.821 89.6069L288.69 89.1131ZM286.915 82.04C286.915 79.3981 287.51 77.0446 288.69 74.9669L287.821 74.4731C286.547 76.7154 285.915 79.2419 285.915 82.04H286.915ZM288.689 74.9686C289.899 72.8578 291.528 71.2302 293.58 70.0758L293.09 69.2042C290.876 70.4498 289.118 72.2089 287.822 74.4714L288.689 74.9686ZM293.585 70.0735C295.638 68.8926 297.911 68.3 300.415 68.3V67.3C297.746 67.3 295.299 67.934 293.086 69.2065L293.585 70.0735ZM300.415 68.3C303.289 68.3 305.806 69.0105 307.984 70.4198L308.527 69.5802C306.172 68.0562 303.462 67.3 300.415 67.3V68.3ZM307.986 70.4212C310.185 71.8278 311.786 73.8082 312.789 76.3817L313.721 76.0183C312.645 73.2584 310.912 71.1055 308.525 69.5788L307.986 70.4212ZM313.255 75.7H308.895V76.7H313.255V75.7ZM341.588 96L341.156 96.2517L341.301 96.5H341.588V96ZM334.948 84.6L335.38 84.3483L335.236 84.1H334.948V84.6ZM330.548 84.6V84.1H330.048V84.6H330.548ZM330.548 96V96.5H331.048V96H330.548ZM326.908 96H326.408V96.5H326.908V96ZM326.908 68.12V67.62H326.408V68.12H326.908ZM341.228 69.2L341.005 69.6472L341.008 69.6488L341.228 69.2ZM343.908 81.4L343.511 81.0965L343.507 81.1012L343.908 81.4ZM338.948 84.32L338.842 83.8314L338.161 83.9791L338.519 84.577L338.948 84.32ZM345.948 96V96.5H346.831L346.377 95.743L345.948 96ZM330.548 81.68H330.048V82.18H330.548V81.68ZM340.348 80.24L340.697 80.5984L340.702 80.5936L340.348 80.24ZM340.348 72.48L340.005 72.8435L340.01 72.8482L340.348 72.48ZM330.548 71.12V70.62H330.048V71.12H330.548ZM342.02 95.7483L335.38 84.3483L334.516 84.8517L341.156 96.2517L342.02 95.7483ZM334.948 84.1H330.548V85.1H334.948V84.1ZM330.048 84.6V96H331.048V84.6H330.048ZM330.548 95.5H326.908V96.5H330.548V95.5ZM327.408 96V68.12H326.408V96H327.408ZM326.908 68.62H335.908V67.62H326.908V68.62ZM335.908 68.62C337.96 68.62 339.652 68.9709 341.005 69.6472L341.452 68.7528C339.924 67.9891 338.069 67.62 335.908 67.62V68.62ZM341.008 69.6488C342.4 70.3323 343.414 71.243 344.077 72.3731L344.939 71.8669C344.163 70.5437 342.99 69.5077 341.448 68.7512L341.008 69.6488ZM344.077 72.3731C344.747 73.5151 345.088 74.826 345.088 76.32H346.088C346.088 74.6674 345.709 73.1783 344.939 71.8669L344.077 72.3731ZM345.088 76.32C345.088 78.1351 344.561 79.7207 343.511 81.0965L344.306 81.7035C345.495 80.1459 346.088 78.3449 346.088 76.32H345.088ZM343.507 81.1012C342.502 82.4495 340.967 83.3706 338.842 83.8314L339.054 84.8086C341.356 84.3094 343.127 83.2838 344.309 81.6988L343.507 81.1012ZM338.519 84.577L345.519 96.257L346.377 95.743L339.377 84.063L338.519 84.577ZM345.948 95.5H341.588V96.5H345.948V95.5ZM330.548 82.18H335.908V81.18H330.548V82.18ZM335.908 82.18C337.955 82.18 339.583 81.6822 340.697 80.5984L339.999 79.8816C339.14 80.7178 337.808 81.18 335.908 81.18V82.18ZM340.702 80.5936C341.798 79.4976 342.328 78.0555 342.328 76.32H341.328C341.328 77.8378 340.872 79.0091 339.995 79.8864L340.702 80.5936ZM342.328 76.32C342.328 74.5619 341.799 73.1346 340.686 72.1118L340.01 72.8482C340.87 73.6387 341.328 74.7714 341.328 76.32H342.328ZM340.691 72.1165C339.601 71.0863 337.972 70.62 335.908 70.62V71.62C337.845 71.62 339.176 72.0604 340.005 72.8435L340.691 72.1165ZM335.908 70.62H330.548V71.62H335.908V70.62ZM330.048 71.12V81.68H331.048V71.12H330.048ZM362.884 71.08V70.58H362.384V71.08H362.884ZM362.884 80.4H362.384V80.9H362.884V80.4ZM373.044 80.4H373.544V79.9H373.044V80.4ZM373.044 83.4V83.9H373.544V83.4H373.044ZM362.884 83.4V82.9H362.384V83.4H362.884ZM362.884 93H362.384V93.5H362.884V93ZM374.244 93H374.744V92.5H374.244V93ZM374.244 96V96.5H374.744V96H374.244ZM359.244 96H358.744V96.5H359.244V96ZM359.244 68.08V67.58H358.744V68.08H359.244ZM374.244 68.08H374.744V67.58H374.244V68.08ZM374.244 71.08V71.58H374.744V71.08H374.244ZM362.384 71.08V80.4H363.384V71.08H362.384ZM362.884 80.9H373.044V79.9H362.884V80.9ZM372.544 80.4V83.4H373.544V80.4H372.544ZM373.044 82.9H362.884V83.9H373.044V82.9ZM362.384 83.4V93H363.384V83.4H362.384ZM362.884 93.5H374.244V92.5H362.884V93.5ZM373.744 93V96H374.744V93H373.744ZM374.244 95.5H359.244V96.5H374.244V95.5ZM359.744 96V68.08H358.744V96H359.744ZM359.244 68.58H374.244V67.58H359.244V68.58ZM373.744 68.08V71.08H374.744V68.08H373.744ZM374.244 70.58H362.884V71.58H374.244V70.58ZM391.392 71.08V70.58H390.892V71.08H391.392ZM391.392 80.4H390.892V80.9H391.392V80.4ZM401.552 80.4H402.052V79.9H401.552V80.4ZM401.552 83.4V83.9H402.052V83.4H401.552ZM391.392 83.4V82.9H390.892V83.4H391.392ZM391.392 93H390.892V93.5H391.392V93ZM402.752 93H403.252V92.5H402.752V93ZM402.752 96V96.5H403.252V96H402.752ZM387.752 96H387.252V96.5H387.752V96ZM387.752 68.08V67.58H387.252V68.08H387.752ZM402.752 68.08H403.252V67.58H402.752V68.08ZM402.752 71.08V71.58H403.252V71.08H402.752ZM390.892 71.08V80.4H391.892V71.08H390.892ZM391.392 80.9H401.552V79.9H391.392V80.9ZM401.052 80.4V83.4H402.052V80.4H401.052ZM401.552 82.9H391.392V83.9H401.552V82.9ZM390.892 83.4V93H391.892V83.4H390.892ZM391.392 93.5H402.752V92.5H391.392V93.5ZM402.252 93V96H403.252V93H402.252ZM402.752 95.5H387.752V96.5H402.752V95.5ZM388.252 96V68.08H387.252V96H388.252ZM387.752 68.58H402.752V67.58H387.752V68.58ZM402.252 68.08V71.08H403.252V68.08H402.252ZM402.752 70.58H391.392V71.58H402.752V70.58ZM438.18 96V96.5H438.68V96H438.18ZM434.54 96L434.122 96.2753L434.27 96.5H434.54V96ZM419.9 73.8L420.317 73.5247L419.4 72.1336V73.8H419.9ZM419.9 96V96.5H420.4V96H419.9ZM416.26 96H415.76V96.5H416.26V96ZM416.26 68.08V67.58H415.76V68.08H416.26ZM419.9 68.08L420.317 67.8044L420.169 67.58H419.9V68.08ZM434.54 90.24L434.123 90.5156L435.04 91.9039V90.24H434.54ZM434.54 68.08V67.58H434.04V68.08H434.54ZM438.18 68.08H438.68V67.58H438.18V68.08ZM438.18 95.5H434.54V96.5H438.18V95.5ZM434.957 95.7247L420.317 73.5247L419.482 74.0753L434.122 96.2753L434.957 95.7247ZM419.4 73.8V96H420.4V73.8H419.4ZM419.9 95.5H416.26V96.5H419.9V95.5ZM416.76 96V68.08H415.76V96H416.76ZM416.26 68.58H419.9V67.58H416.26V68.58ZM419.483 68.3556L434.123 90.5156L434.957 89.9644L420.317 67.8044L419.483 68.3556ZM435.04 90.24V68.08H434.04V90.24H435.04ZM434.54 68.58H438.18V67.58H434.54V68.58ZM437.68 68.08V96H438.68V68.08H437.68Z" fill="#14213D"/>
</svg>
