<svg width="550" height="600" viewBox="0 0 550 600" fill="none" xmlns="http://www.w3.org/2000/svg">
<rect x="5.36206" y="5" width="178.232" height="190" fill="white"/>
<rect x="188.189" y="5" width="178.232" height="190" fill="white"/>
<rect x="4.97852" y="200" width="178.232" height="195" fill="white"/>
<rect x="188.189" y="5" width="178.232" height="195" fill="white"/>
<rect x="371.399" y="200" width="173.253" height="195" fill="white"/>
<rect x="2.8689" y="2.5" width="544.631" height="595" fill="white" stroke="#14213D" stroke-width="5"/>
<rect x="188.189" y="400" width="178.232" height="195" fill="white"/>
<line x1="185.71" y1="-1.09749e-07" x2="185.71" y2="600" stroke="#14213D" stroke-width="5"/>
<line x1="368.921" y1="-1.09749e-07" x2="368.921" y2="600" stroke="#14213D" stroke-width="5"/>
<line x1="2.18557e-07" y1="197.5" x2="549.631" y2="197.5" stroke="#14213D" stroke-width="5"/>
<line x1="2.18557e-07" y1="397.5" x2="549.631" y2="397.5" stroke="#14213D" stroke-width="5"/>
<path d="M448.253 276.8V270.16H463.293V328H455.933V276.8H448.253Z" fill="#14213D"/>
<path d="M256.386 125.16C263.159 119.72 268.466 115.267 272.306 111.8C276.146 108.28 279.372 104.627 281.986 100.84C284.652 97 285.986 93.24 285.986 89.56C285.986 86.0933 285.132 83.3733 283.426 81.4C281.772 79.3733 279.079 78.36 275.346 78.36C271.719 78.36 268.892 79.5067 266.866 81.8C264.892 84.04 263.826 87.0533 263.666 90.84H256.626C256.839 84.8667 258.652 80.2533 262.066 77C265.479 73.7467 269.879 72.12 275.266 72.12C280.759 72.12 285.106 73.64 288.306 76.68C291.559 79.72 293.186 83.9067 293.186 89.24C293.186 93.6667 291.852 97.9867 289.186 102.2C286.572 106.36 283.586 110.04 280.226 113.24C276.866 116.387 272.572 120.067 267.346 124.28H294.866V130.36H256.386V125.16Z" fill="#14213D"/>
<path d="M258.052 482.72C258.426 477.813 260.319 473.973 263.732 471.2C267.146 468.427 271.572 467.04 277.012 467.04C280.639 467.04 283.759 467.707 286.372 469.04C289.039 470.32 291.039 472.08 292.372 474.32C293.759 476.56 294.452 479.093 294.452 481.92C294.452 485.227 293.492 488.08 291.572 490.48C289.706 492.88 287.252 494.427 284.212 495.12V495.52C287.679 496.373 290.426 498.053 292.452 500.56C294.479 503.067 295.492 506.347 295.492 510.4C295.492 513.44 294.799 516.187 293.412 518.64C292.026 521.04 289.946 522.933 287.172 524.32C284.399 525.707 281.066 526.4 277.172 526.4C271.519 526.4 266.879 524.933 263.252 522C259.626 519.013 257.599 514.8 257.172 509.36H264.212C264.586 512.56 265.892 515.173 268.132 517.2C270.372 519.227 273.359 520.24 277.092 520.24C280.826 520.24 283.652 519.28 285.572 517.36C287.546 515.387 288.532 512.853 288.532 509.76C288.532 505.76 287.199 502.88 284.532 501.12C281.866 499.36 277.839 498.48 272.452 498.48H270.612V492.4H272.532C277.439 492.347 281.146 491.547 283.652 490C286.159 488.4 287.412 485.947 287.412 482.64C287.412 479.813 286.479 477.547 284.612 475.84C282.799 474.133 280.186 473.28 276.772 473.28C273.466 473.28 270.799 474.133 268.772 475.84C266.746 477.547 265.546 479.84 265.172 482.72H258.052Z" fill="#14213D"/>
<path d="M66.7185 118.12V112.6L94.7985 73.72H103.519V111.8H111.519V118.12H103.519V131H96.3185V118.12H66.7185ZM96.6385 81.32L75.1185 111.8H96.6385V81.32Z" fill="#14213D"/>
<path d="M111.419 272.84L89.1793 325H81.8193L104.379 273.56H73.4993V267.32H111.419V272.84Z" fill="#14213D"/>
<path d="M448.809 100.92C445.823 99.7467 443.529 98.04 441.929 95.8C440.329 93.56 439.529 90.84 439.529 87.64C439.529 84.76 440.249 82.1733 441.689 79.88C443.129 77.5333 445.263 75.6933 448.089 74.36C450.969 72.9733 454.436 72.28 458.49 72.28C462.543 72.28 465.983 72.9733 468.81 74.36C471.69 75.6933 473.85 77.5333 475.29 79.88C476.783 82.1733 477.53 84.76 477.53 87.64C477.53 90.7333 476.703 93.4533 475.05 95.8C473.396 98.0933 471.13 99.8 468.249 100.92C471.556 101.933 474.17 103.72 476.09 106.28C478.063 108.787 479.05 111.827 479.05 115.4C479.05 118.867 478.196 121.907 476.49 124.52C474.783 127.08 472.356 129.08 469.21 130.52C466.116 131.907 462.543 132.6 458.49 132.6C454.436 132.6 450.863 131.907 447.77 130.52C444.729 129.08 442.356 127.08 440.649 124.52C438.943 121.907 438.089 118.867 438.089 115.4C438.089 111.827 439.049 108.76 440.969 106.2C442.889 103.64 445.503 101.88 448.809 100.92ZM470.49 88.52C470.49 85.2667 469.423 82.76 467.29 81C465.156 79.24 462.223 78.36 458.49 78.36C454.81 78.36 451.903 79.24 449.77 81C447.636 82.76 446.569 85.2933 446.569 88.6C446.569 91.5867 447.663 93.9867 449.85 95.8C452.09 97.6133 454.97 98.52 458.49 98.52C462.063 98.52 464.943 97.6133 467.129 95.8C469.37 93.9333 470.49 91.5067 470.49 88.52ZM458.49 104.12C454.543 104.12 451.316 105.053 448.809 106.92C446.303 108.733 445.049 111.48 445.049 115.16C445.049 118.573 446.249 121.32 448.649 123.4C451.103 125.48 454.383 126.52 458.49 126.52C462.596 126.52 465.85 125.48 468.249 123.4C470.65 121.32 471.85 118.573 471.85 115.16C471.85 111.587 470.623 108.867 468.17 107C465.716 105.08 462.49 104.12 458.49 104.12Z" fill="#14213D"/>
<path d="M113.804 474.48H85.7243V492.72C86.951 491.013 88.7643 489.627 91.1643 488.56C93.5643 487.44 96.151 486.88 98.9243 486.88C103.351 486.88 106.951 487.813 109.724 489.68C112.498 491.493 114.471 493.867 115.644 496.8C116.871 499.68 117.484 502.747 117.484 506C117.484 509.84 116.764 513.28 115.324 516.32C113.884 519.36 111.671 521.76 108.684 523.52C105.751 525.28 102.098 526.16 97.7243 526.16C92.1243 526.16 87.591 524.72 84.1243 521.84C80.6576 518.96 78.551 515.12 77.8043 510.32H84.9243C85.6176 513.36 87.0843 515.733 89.3243 517.44C91.5643 519.147 94.391 520 97.8043 520C102.018 520 105.191 518.747 107.324 516.24C109.458 513.68 110.524 510.32 110.524 506.16C110.524 502 109.458 498.8 107.324 496.56C105.191 494.267 102.044 493.12 97.8843 493.12C95.0576 493.12 92.5776 493.813 90.4443 495.2C88.3643 496.533 86.8443 498.373 85.8843 500.72H79.0043V468.08H113.804V474.48Z" fill="#14213D"/>
<path d="M470.333 481.92C469.16 476 465.507 473.04 459.373 473.04C454.627 473.04 451.08 474.88 448.733 478.56C446.387 482.187 445.24 488.187 445.293 496.56C446.52 493.787 448.547 491.627 451.373 490.08C454.253 488.48 457.453 487.68 460.973 487.68C466.467 487.68 470.84 489.387 474.093 492.8C477.4 496.213 479.053 500.933 479.053 506.96C479.053 510.587 478.333 513.84 476.893 516.72C475.507 519.6 473.373 521.893 470.493 523.6C467.667 525.307 464.227 526.16 460.173 526.16C454.68 526.16 450.387 524.933 447.293 522.48C444.2 520.027 442.04 516.64 440.813 512.32C439.587 508 438.973 502.667 438.973 496.32C438.973 476.747 445.8 466.96 459.453 466.96C464.68 466.96 468.787 468.373 471.773 471.2C474.76 474.027 476.52 477.6 477.053 481.92H470.333ZM459.453 493.84C457.16 493.84 455 494.32 452.973 495.28C450.947 496.187 449.293 497.6 448.013 499.52C446.787 501.387 446.173 503.68 446.173 506.4C446.173 510.453 447.347 513.76 449.693 516.32C452.04 518.827 455.4 520.08 459.773 520.08C463.507 520.08 466.467 518.933 468.653 516.64C470.893 514.293 472.013 511.147 472.013 507.2C472.013 503.04 470.947 499.787 468.813 497.44C466.68 495.04 463.56 493.84 459.453 493.84Z" fill="#14213D"/>
</svg>
