<svg width="551" height="600" viewBox="0 0 551 600" fill="none" xmlns="http://www.w3.org/2000/svg">
<rect x="5.61597" y="5" width="178.471" height="190" fill="white"/>
<rect x="189.072" y="5" width="178.471" height="190" fill="white"/>
<rect x="5.61597" y="200" width="178.471" height="195" fill="white"/>
<rect x="3.13074" y="2.5" width="545.369" height="595" stroke="#14213D" stroke-width="5"/>
<line x1="186.587" y1="-1.09602e-07" x2="186.587" y2="600" stroke="#14213D" stroke-width="5"/>
<line x1="370.044" y1="-1.09602e-07" x2="370.044" y2="600" stroke="#14213D" stroke-width="5"/>
<line x1="0.630738" y1="197.5" x2="551" y2="197.5" stroke="#14213D" stroke-width="5"/>
<line x1="0.630738" y1="397.5" x2="551" y2="397.5" stroke="#14213D" stroke-width="5"/>
<path d="M449.499 276.8V270.16H464.539V328H457.179V276.8H449.499Z" fill="#14213D"/>
<path d="M257.386 125.16C264.159 119.72 269.466 115.267 273.306 111.8C277.146 108.28 280.373 104.627 282.986 100.84C285.653 97 286.986 93.24 286.986 89.56C286.986 86.0933 286.133 83.3733 284.426 81.4C282.773 79.3733 280.079 78.36 276.346 78.36C272.719 78.36 269.893 79.5067 267.866 81.8C265.893 84.04 264.826 87.0533 264.666 90.84H257.626C257.839 84.8667 259.653 80.2533 263.066 77C266.479 73.7467 270.879 72.12 276.266 72.12C281.759 72.12 286.106 73.64 289.306 76.68C292.559 79.72 294.186 83.9067 294.186 89.24C294.186 93.6667 292.853 97.9867 290.186 102.2C287.573 106.36 284.586 110.04 281.226 113.24C277.866 116.387 273.573 120.067 268.346 124.28H295.866V130.36H257.386V125.16Z" fill="#14213D"/>
<path d="M259.055 482.72C259.428 477.813 261.321 473.973 264.735 471.2C268.148 468.427 272.575 467.04 278.015 467.04C281.641 467.04 284.761 467.707 287.375 469.04C290.041 470.32 292.041 472.08 293.375 474.32C294.761 476.56 295.455 479.093 295.455 481.92C295.455 485.227 294.495 488.08 292.575 490.48C290.708 492.88 288.255 494.427 285.215 495.12V495.52C288.681 496.373 291.428 498.053 293.455 500.56C295.481 503.067 296.495 506.347 296.495 510.4C296.495 513.44 295.801 516.187 294.415 518.64C293.028 521.04 290.948 522.933 288.175 524.32C285.401 525.707 282.068 526.4 278.175 526.4C272.521 526.4 267.881 524.933 264.255 522C260.628 519.013 258.601 514.8 258.175 509.36H265.215C265.588 512.56 266.895 515.173 269.135 517.2C271.375 519.227 274.361 520.24 278.095 520.24C281.828 520.24 284.655 519.28 286.575 517.36C288.548 515.387 289.535 512.853 289.535 509.76C289.535 505.76 288.201 502.88 285.535 501.12C282.868 499.36 278.841 498.48 273.455 498.48H271.615V492.4H273.535C278.441 492.347 282.148 491.547 284.655 490C287.161 488.4 288.415 485.947 288.415 482.64C288.415 479.813 287.481 477.547 285.615 475.84C283.801 474.133 281.188 473.28 277.775 473.28C274.468 473.28 271.801 474.133 269.775 475.84C267.748 477.547 266.548 479.84 266.175 482.72H259.055Z" fill="#14213D"/>
<path d="M67.9101 118.12V112.6L95.9901 73.72H104.71V111.8H112.71V118.12H104.71V131H97.5101V118.12H67.9101ZM97.8301 81.32L76.3101 111.8H97.8301V81.32Z" fill="black"/>
<path d="M112.08 272.84L89.84 325H82.48L105.04 273.56H74.16V267.32H112.08V272.84Z" fill="black"/>
<path d="M450.056 100.92C447.069 99.7467 444.776 98.04 443.176 95.8C441.576 93.56 440.776 90.84 440.776 87.64C440.776 84.76 441.496 82.1733 442.936 79.88C444.376 77.5333 446.509 75.6933 449.336 74.36C452.216 72.9733 455.683 72.28 459.736 72.28C463.789 72.28 467.229 72.9733 470.056 74.36C472.936 75.6933 475.096 77.5333 476.536 79.88C478.029 82.1733 478.776 84.76 478.776 87.64C478.776 90.7333 477.949 93.4533 476.296 95.8C474.643 98.0933 472.376 99.8 469.496 100.92C472.803 101.933 475.416 103.72 477.336 106.28C479.309 108.787 480.296 111.827 480.296 115.4C480.296 118.867 479.443 121.907 477.736 124.52C476.029 127.08 473.603 129.08 470.456 130.52C467.363 131.907 463.789 132.6 459.736 132.6C455.683 132.6 452.109 131.907 449.016 130.52C445.976 129.08 443.603 127.08 441.896 124.52C440.189 121.907 439.336 118.867 439.336 115.4C439.336 111.827 440.296 108.76 442.216 106.2C444.136 103.64 446.749 101.88 450.056 100.92ZM471.736 88.52C471.736 85.2667 470.669 82.76 468.536 81C466.403 79.24 463.469 78.36 459.736 78.36C456.056 78.36 453.149 79.24 451.016 81C448.883 82.76 447.816 85.2933 447.816 88.6C447.816 91.5867 448.909 93.9867 451.096 95.8C453.336 97.6133 456.216 98.52 459.736 98.52C463.309 98.52 466.189 97.6133 468.376 95.8C470.616 93.9333 471.736 91.5067 471.736 88.52ZM459.736 104.12C455.789 104.12 452.563 105.053 450.056 106.92C447.549 108.733 446.296 111.48 446.296 115.16C446.296 118.573 447.496 121.32 449.896 123.4C452.349 125.48 455.629 126.52 459.736 126.52C463.843 126.52 467.096 125.48 469.496 123.4C471.896 121.32 473.096 118.573 473.096 115.16C473.096 111.587 471.869 108.867 469.416 107C466.963 105.08 463.736 104.12 459.736 104.12Z" fill="black"/>
<path d="M114.566 474.48H86.4855V492.72C87.7122 491.013 89.5255 489.627 91.9255 488.56C94.3255 487.44 96.9122 486.88 99.6855 486.88C104.112 486.88 107.712 487.813 110.486 489.68C113.259 491.493 115.232 493.867 116.406 496.8C117.632 499.68 118.246 502.747 118.246 506C118.246 509.84 117.526 513.28 116.086 516.32C114.646 519.36 112.432 521.76 109.446 523.52C106.512 525.28 102.859 526.16 98.4855 526.16C92.8855 526.16 88.3522 524.72 84.8855 521.84C81.4188 518.96 79.3122 515.12 78.5655 510.32H85.6855C86.3788 513.36 87.8455 515.733 90.0855 517.44C92.3255 519.147 95.1522 520 98.5655 520C102.779 520 105.952 518.747 108.086 516.24C110.219 513.68 111.286 510.32 111.286 506.16C111.286 502 110.219 498.8 108.086 496.56C105.952 494.267 102.806 493.12 98.6455 493.12C95.8188 493.12 93.3388 493.813 91.2055 495.2C89.1255 496.533 87.6055 498.373 86.6455 500.72H79.7655V468.08H114.566V474.48Z" fill="black"/>
<path d="M471.58 481.92C470.406 476 466.753 473.04 460.62 473.04C455.873 473.04 452.326 474.88 449.98 478.56C447.633 482.187 446.486 488.187 446.54 496.56C447.766 493.787 449.793 491.627 452.62 490.08C455.5 488.48 458.7 487.68 462.22 487.68C467.713 487.68 472.086 489.387 475.34 492.8C478.646 496.213 480.3 500.933 480.3 506.96C480.3 510.587 479.58 513.84 478.14 516.72C476.753 519.6 474.62 521.893 471.74 523.6C468.913 525.307 465.473 526.16 461.42 526.16C455.926 526.16 451.633 524.933 448.54 522.48C445.446 520.027 443.286 516.64 442.06 512.32C440.833 508 440.22 502.667 440.22 496.32C440.22 476.747 447.046 466.96 460.7 466.96C465.926 466.96 470.033 468.373 473.02 471.2C476.006 474.027 477.766 477.6 478.3 481.92H471.58ZM460.7 493.84C458.406 493.84 456.246 494.32 454.22 495.28C452.193 496.187 450.54 497.6 449.26 499.52C448.033 501.387 447.42 503.68 447.42 506.4C447.42 510.453 448.593 513.76 450.94 516.32C453.286 518.827 456.646 520.08 461.02 520.08C464.753 520.08 467.713 518.933 469.9 516.64C472.14 514.293 473.26 511.147 473.26 507.2C473.26 503.04 472.193 499.787 470.06 497.44C467.926 495.04 464.806 493.84 460.7 493.84Z" fill="black"/>
</svg>
