<svg width="552" height="600" viewBox="0 0 552 600" fill="none" xmlns="http://www.w3.org/2000/svg">
<rect x="2.5" y="2.5" width="547" height="595" fill="white" stroke="#FFC76C" stroke-width="5"/>
<line y1="205.983" x2="552" y2="205.983" stroke="#FFC76C" stroke-width="5"/>
<line y1="398.805" x2="552" y2="398.805" stroke="#FFC76C" stroke-width="5"/>
<line x1="180.5" y1="1.08209e-07" x2="180.5" y2="600" stroke="#FFC76C" stroke-width="5"/>
<line x1="371.5" y1="1.08209e-07" x2="371.5" y2="600" stroke="#FFC76C" stroke-width="5"/>
<path d="M67.5438 123.89V118.37L95.6238 79.49H104.344V117.57H112.344V123.89H104.344V136.77H97.1438V123.89H67.5438ZM97.4638 87.09L75.9438 117.57H97.4638V87.09Z" fill="#14213D"/>
<path d="M256.572 130.93C263.346 125.49 268.652 121.037 272.492 117.57C276.332 114.05 279.559 110.397 282.172 106.61C284.839 102.77 286.172 99.01 286.172 95.33C286.172 91.8634 285.319 89.1434 283.612 87.17C281.959 85.1433 279.266 84.13 275.532 84.13C271.906 84.13 269.079 85.2767 267.052 87.57C265.079 89.81 264.012 92.8234 263.852 96.61H256.812C257.026 90.6367 258.839 86.0234 262.252 82.77C265.666 79.5167 270.066 77.89 275.452 77.89C280.946 77.89 285.292 79.41 288.492 82.45C291.746 85.49 293.372 89.6767 293.372 95.01C293.372 99.4367 292.039 103.757 289.372 107.97C286.759 112.13 283.772 115.81 280.412 119.01C277.052 122.157 272.759 125.837 267.532 130.05H295.052V136.13H256.572V130.93Z" fill="#14213D"/>
<path d="M101.309 288.449C100.136 282.529 96.4827 279.569 90.3494 279.569C85.6027 279.569 82.056 281.409 79.7094 285.089C77.3627 288.715 76.216 294.715 76.2694 303.089C77.496 300.315 79.5227 298.155 82.3494 296.609C85.2294 295.009 88.4294 294.209 91.9494 294.209C97.4427 294.209 101.816 295.915 105.069 299.329C108.376 302.742 110.029 307.462 110.029 313.489C110.029 317.115 109.309 320.369 107.869 323.249C106.483 326.129 104.349 328.422 101.469 330.129C98.6427 331.835 95.2027 332.689 91.1494 332.689C85.656 332.689 81.3627 331.462 78.2694 329.009C75.176 326.555 73.016 323.169 71.7894 318.849C70.5627 314.529 69.9494 309.195 69.9494 302.849C69.9494 283.275 76.776 273.489 90.4294 273.489C95.656 273.489 99.7627 274.902 102.749 277.729C105.736 280.555 107.496 284.129 108.029 288.449H101.309ZM90.4294 300.369C88.136 300.369 85.976 300.849 83.9494 301.809C81.9227 302.715 80.2694 304.129 78.9894 306.049C77.7627 307.915 77.1494 310.209 77.1494 312.929C77.1494 316.982 78.3227 320.289 80.6694 322.849C83.016 325.355 86.376 326.609 90.7494 326.609C94.4827 326.609 97.4427 325.462 99.6294 323.169C101.869 320.822 102.989 317.675 102.989 313.729C102.989 309.569 101.923 306.315 99.7894 303.969C97.656 301.569 94.536 300.369 90.4294 300.369Z" fill="#14213D"/>
<path d="M106.223 473.831H78.1428V492.071C79.3695 490.364 81.1828 488.977 83.5828 487.911C85.9828 486.791 88.5695 486.231 91.3428 486.231C95.7695 486.231 99.3695 487.164 102.143 489.031C104.916 490.844 106.889 493.217 108.063 496.151C109.289 499.031 109.903 502.097 109.903 505.351C109.903 509.191 109.183 512.631 107.743 515.671C106.303 518.711 104.089 521.111 101.103 522.871C98.1695 524.631 94.5161 525.511 90.1428 525.511C84.5428 525.511 80.0095 524.071 76.5428 521.191C73.0761 518.311 70.9695 514.471 70.2228 509.671H77.3428C78.0361 512.711 79.5028 515.084 81.7428 516.791C83.9828 518.497 86.8095 519.351 90.2228 519.351C94.4361 519.351 97.6095 518.097 99.7428 515.591C101.876 513.031 102.943 509.671 102.943 505.511C102.943 501.351 101.876 498.151 99.7428 495.911C97.6095 493.617 94.4628 492.471 90.3028 492.471C87.4761 492.471 84.9961 493.164 82.8628 494.551C80.7828 495.884 79.2628 497.724 78.3028 500.071H71.4228V467.431H106.223V473.831Z" fill="#14213D"/>
<path d="M447.728 278.392V271.752H462.768V329.592H455.408V278.392H447.728Z" fill="#14213D"/>
<path d="M438.745 486.965C439.119 482.058 441.012 478.218 444.425 475.445C447.839 472.671 452.265 471.285 457.705 471.285C461.332 471.285 464.452 471.951 467.065 473.285C469.732 474.565 471.732 476.325 473.065 478.565C474.452 480.805 475.145 483.338 475.145 486.165C475.145 489.471 474.185 492.325 472.265 494.725C470.399 497.125 467.945 498.671 464.905 499.365V499.765C468.372 500.618 471.119 502.298 473.145 504.805C475.172 507.311 476.185 510.591 476.185 514.645C476.185 517.685 475.492 520.431 474.105 522.885C472.719 525.285 470.639 527.178 467.865 528.565C465.092 529.951 461.759 530.645 457.865 530.645C452.212 530.645 447.572 529.178 443.945 526.245C440.319 523.258 438.292 519.045 437.865 513.605H444.905C445.279 516.805 446.585 519.418 448.825 521.445C451.065 523.471 454.052 524.485 457.785 524.485C461.519 524.485 464.345 523.525 466.265 521.605C468.239 519.631 469.225 517.098 469.225 514.005C469.225 510.005 467.892 507.125 465.225 505.365C462.559 503.605 458.532 502.725 453.145 502.725H451.305V496.645H453.225C458.132 496.591 461.839 495.791 464.345 494.245C466.852 492.645 468.105 490.191 468.105 486.885C468.105 484.058 467.172 481.791 465.305 480.085C463.492 478.378 460.879 477.525 457.465 477.525C454.159 477.525 451.492 478.378 449.465 480.085C447.439 481.791 446.239 484.085 445.865 486.965H438.745Z" fill="#14213D"/>
<path d="M270.786 500.165C267.799 498.991 265.506 497.285 263.906 495.045C262.306 492.805 261.506 490.085 261.506 486.885C261.506 484.005 262.226 481.418 263.666 479.125C265.106 476.778 267.239 474.938 270.066 473.605C272.946 472.218 276.412 471.525 280.466 471.525C284.519 471.525 287.959 472.218 290.786 473.605C293.666 474.938 295.826 476.778 297.266 479.125C298.759 481.418 299.506 484.005 299.506 486.885C299.506 489.978 298.679 492.698 297.026 495.045C295.372 497.338 293.106 499.045 290.226 500.165C293.532 501.178 296.146 502.965 298.066 505.525C300.039 508.031 301.026 511.071 301.026 514.645C301.026 518.111 300.172 521.151 298.466 523.765C296.759 526.325 294.332 528.325 291.186 529.765C288.092 531.151 284.519 531.845 280.466 531.845C276.412 531.845 272.839 531.151 269.746 529.765C266.706 528.325 264.332 526.325 262.626 523.765C260.919 521.151 260.066 518.111 260.066 514.645C260.066 511.071 261.026 508.005 262.946 505.445C264.866 502.885 267.479 501.125 270.786 500.165ZM292.466 487.765C292.466 484.511 291.399 482.005 289.266 480.245C287.132 478.485 284.199 477.605 280.466 477.605C276.786 477.605 273.879 478.485 271.746 480.245C269.612 482.005 268.546 484.538 268.546 487.845C268.546 490.831 269.639 493.231 271.826 495.045C274.066 496.858 276.946 497.765 280.466 497.765C284.039 497.765 286.919 496.858 289.106 495.045C291.346 493.178 292.466 490.751 292.466 487.765ZM280.466 503.365C276.519 503.365 273.292 504.298 270.786 506.165C268.279 507.978 267.026 510.725 267.026 514.405C267.026 517.818 268.226 520.565 270.626 522.645C273.079 524.725 276.359 525.765 280.466 525.765C284.572 525.765 287.826 524.725 290.226 522.645C292.626 520.565 293.826 517.818 293.826 514.405C293.826 510.831 292.599 508.111 290.146 506.245C287.692 504.325 284.466 503.365 280.466 503.365Z" fill="#14213D"/>
<path d="M476.224 84.61L453.984 136.77H446.624L469.184 85.33H438.304V79.09H476.224V84.61Z" fill="#14213D"/>
</svg>
