<svg width="552" height="600" viewBox="0 0 552 600" fill="none" xmlns="http://www.w3.org/2000/svg">
<rect width="152.468" height="393.322" fill="#FFD18D" fill-opacity="0.44"/>
<rect x="399.532" y="204.569" width="152.468" height="395.431" fill="#FFD18D" fill-opacity="0.44"/>
<rect y="599.999" width="164.499" height="377.274" transform="rotate(-90 0 599.999)" fill="#FFDC25" fill-opacity="0.7"/>
<path d="M166.319 503.308L158.239 531.188H154.159L147.679 508.748L140.959 531.188L136.919 531.228L129.119 503.308H132.999L139.079 526.948L145.799 503.308H149.879L156.279 526.868L162.399 503.308H166.319ZM195.782 503.308V531.188H192.142V518.548H177.942V531.188H174.302V503.308H177.942V515.548H192.142V503.308H195.782ZM209.638 503.308V531.188H205.998V503.308H209.638ZM237.002 503.308V506.268H229.402V531.188H225.762V506.268H218.122V503.308H237.002ZM249.122 506.268V515.588H259.282V518.588H249.122V528.188H260.482V531.188H245.482V503.268H260.482V506.268H249.122Z" fill="#14213D"/>
<rect x="175.214" y="393.322" width="188.752" height="197.702" transform="rotate(-90 175.214 393.322)" fill="#FFD18D"/>
<path d="M251.384 310.844L244.744 299.444H240.344V310.844H236.704V282.964H245.704C247.811 282.964 249.584 283.324 251.024 284.044C252.491 284.764 253.584 285.737 254.304 286.964C255.024 288.191 255.384 289.591 255.384 291.164C255.384 293.084 254.824 294.777 253.704 296.244C252.611 297.711 250.958 298.684 248.744 299.164L255.744 310.844H251.384ZM240.344 296.524H245.704C247.678 296.524 249.158 296.044 250.144 295.084C251.131 294.097 251.624 292.791 251.624 291.164C251.624 289.511 251.131 288.231 250.144 287.324C249.184 286.417 247.704 285.964 245.704 285.964H240.344V296.524ZM268.68 285.924V295.244H278.84V298.244H268.68V307.844H280.04V310.844H265.04V282.924H280.04V285.924H268.68ZM298.228 282.964C301.268 282.964 303.895 283.537 306.108 284.684C308.348 285.804 310.055 287.417 311.228 289.524C312.428 291.631 313.028 294.111 313.028 296.964C313.028 299.817 312.428 302.297 311.228 304.404C310.055 306.484 308.348 308.084 306.108 309.204C303.895 310.297 301.268 310.844 298.228 310.844H289.548V282.964H298.228ZM298.228 307.844C301.828 307.844 304.575 306.897 306.468 305.004C308.361 303.084 309.308 300.404 309.308 296.964C309.308 293.497 308.348 290.791 306.428 288.844C304.535 286.897 301.801 285.924 298.228 285.924H293.188V307.844H298.228Z" fill="#14213D"/>
<rect x="174.726" y="164.499" width="164.499" height="377.274" transform="rotate(-90 174.726 164.499)" fill="#FFA825" fill-opacity="0.7"/>
<path d="M301.226 76.5684C300.453 74.9417 299.333 73.6884 297.866 72.8084C296.4 71.9017 294.693 71.4484 292.746 71.4484C290.8 71.4484 289.04 71.9017 287.466 72.8084C285.92 73.6884 284.693 74.9684 283.786 76.6484C282.906 78.3017 282.466 80.2217 282.466 82.4084C282.466 84.5951 282.906 86.5151 283.786 88.1684C284.693 89.8217 285.92 91.1017 287.466 92.0084C289.04 92.8884 290.8 93.3284 292.746 93.3284C295.466 93.3284 297.706 92.5151 299.466 90.8884C301.226 89.2617 302.253 87.0617 302.546 84.2884H291.426V81.3284H306.426V84.1284C306.213 86.4217 305.493 88.5284 304.266 90.4484C303.04 92.3417 301.426 93.8484 299.426 94.9684C297.426 96.0617 295.2 96.6084 292.746 96.6084C290.16 96.6084 287.8 96.0084 285.666 94.8084C283.533 93.5817 281.84 91.8884 280.586 89.7284C279.36 87.5684 278.746 85.1284 278.746 82.4084C278.746 79.6884 279.36 77.2484 280.586 75.0884C281.84 72.9017 283.533 71.2084 285.666 70.0084C287.8 68.7817 290.16 68.1684 292.746 68.1684C295.706 68.1684 298.32 68.9017 300.586 70.3684C302.88 71.8351 304.546 73.9017 305.586 76.5684H301.226ZM337.919 96.3684L331.279 84.9684H326.879V96.3684H323.239V68.4884H332.239C334.346 68.4884 336.119 68.8484 337.559 69.5684C339.026 70.2884 340.119 71.2617 340.839 72.4884C341.559 73.7151 341.919 75.1151 341.919 76.6884C341.919 78.6084 341.359 80.3017 340.239 81.7684C339.146 83.2351 337.492 84.2084 335.279 84.6884L342.279 96.3684H337.919ZM326.879 82.0484H332.239C334.212 82.0484 335.692 81.5684 336.679 80.6084C337.666 79.6217 338.159 78.3151 338.159 76.6884C338.159 75.0351 337.666 73.7551 336.679 72.8484C335.719 71.9417 334.239 71.4884 332.239 71.4884H326.879V82.0484ZM363.215 71.4484V80.7684H373.375V83.7684H363.215V93.3684H374.575V96.3684H359.575V68.4484H374.575V71.4484H363.215ZM395.723 71.4484V80.7684H405.883V83.7684H395.723V93.3684H407.083V96.3684H392.083V68.4484H407.083V71.4484H395.723ZM446.511 96.3684H442.871L428.231 74.1684V96.3684H424.591V68.4484H428.231L442.871 90.6084V68.4484H446.511V96.3684Z" fill="#14213D"/>
</svg>
