<?xml version="1.0" encoding="UTF-8" standalone="no"?>
<svg
   version="1.0"
   width="1280.000000pt"
   height="1280.000000pt"
   viewBox="0 0 1280.000000 1280.000000"
   preserveAspectRatio="xMidYMid meet"
   id="svg352"
   sodipodi:docname="bg_spiral.svg"
   inkscape:version="1.2 (dc2aedaf03, 2022-05-15)"
   xmlns:inkscape="http://www.inkscape.org/namespaces/inkscape"
   xmlns:sodipodi="http://sodipodi.sourceforge.net/DTD/sodipodi-0.dtd"
   xmlns="http://www.w3.org/2000/svg"
   xmlns:svg="http://www.w3.org/2000/svg">
  <defs
     id="defs356" />
  <sodipodi:namedview
     id="namedview354"
     pagecolor="#ffffff"
     bordercolor="#000000"
     borderopacity="0.25"
     inkscape:showpageshadow="2"
     inkscape:pageopacity="0.0"
     inkscape:pagecheckerboard="0"
     inkscape:deskcolor="#d1d1d1"
     inkscape:document-units="pt"
     showgrid="false"
     inkscape:zoom="0.47695313"
     inkscape:cx="1076.6257"
     inkscape:cy="849.14005"
     inkscape:window-width="1920"
     inkscape:window-height="1017"
     inkscape:window-x="-8"
     inkscape:window-y="-8"
     inkscape:window-maximized="1"
     inkscape:current-layer="g350" />
  <metadata
     id="metadata308">
Created by potrace 1.15, written by Peter Selinger 2001-2017
</metadata>
  <g
     transform="translate(0.000000,1280.000000) scale(0.100000,-0.100000)"
     fill="#000000"
     stroke="none"
     id="g350">
    <path
       style="fill:#ffffcc;stroke-width:2.09664"
       d="m 798.82064,530.92683 c 28.56773,-15.20363 265.34856,-135.47854 479.59416,-243.61405 142.6001,-71.97411 144.1518,-72.69328 146.0537,-67.69077 3.4876,9.17292 64.9361,197.48717 66.3334,203.28429 1.1505,4.77346 0.5862,5.85971 -3.5541,6.84086 -4.9884,1.18208 -689.753,111.32199 -705.2003,113.42683 -7.11013,0.96883 -4.55725,-0.89519 16.77314,-12.24716 z"
       id="path1301"
       transform="matrix(7.5,0,0,-7.5,0,12800)" />
    <path
       style="display:inline;fill:#fee7c2;fill-opacity:1;stroke-width:2.09664"
       d="m 774.88397,543.2788 c 2.66911,-2.44372 226.45653,-116.2609 484.66113,-246.49627 l 163.0014,-82.21595 2.3349,5.93538 c 4.2042,10.68669 66.8795,203.53701 66.8795,205.78641 0,1.2058 -1.6512,2.69852 -3.6692,3.31716 -2.018,0.61864 -68.7698,11.57107 -148.3374,24.33876 -79.5676,12.76767 -205.9951,33.11536 -280.95,45.21709 -264.71187,42.7386 -286.03291,46.05159 -283.92033,44.11742 z"
       id="path1303"
       transform="matrix(7.5,0,0,-7.5,0,12800)"
       inkscape:label="path1303"
       sodipodi:insensitive="true" />
    <path
       style="fill:#fee7c2;fill-opacity:1;stroke-width:2.09664"
       d="m 1469.7461,628.0403 c -64.5766,-10.1069 -225.7407,-35.23464 -358.1424,-55.83944 -132.40178,-20.60479 -239.95952,-37.70492 -239.01722,-38.00027 0.9423,-0.29536 101.7231,-16.09053 223.95732,-35.10038 122.2343,-19.00985 283.0125,-44.02764 357.285,-55.59509 74.2725,-11.56746 135.8434,-21.03174 136.8243,-21.03174 2.6059,0 1.2114,222.82117 -1.3984,223.44328 -1.1531,0.27489 -54.932,-7.76946 -119.5086,-17.87636 z"
       id="path3306"
       transform="matrix(7.5,0,0,-7.5,0,12800)" />
    <path
       style="fill:#fee7c2;fill-opacity:1;stroke-width:2.09664"
       d="m 1521.1138,634.95898 c -32.8648,-5.15287 -176.7469,-27.65062 -319.7379,-49.99499 -333.34679,-52.09016 -319.77296,-49.93575 -319.06716,-50.64155 1.10148,-1.10148 698.59646,-109.75242 704.56606,-109.75242 3.1255,0 3.4282,8.8624 3.4282,100.34619 0,107.72061 -0.6171,119.91921 -6.0507,119.60644 -1.8613,-0.10714 -30.2736,-4.41079 -63.1385,-9.56367 z"
       id="path3308"
       transform="matrix(7.5,0,0,-7.5,0,12800)" />
    <path
       style="fill:#fee7c2;fill-opacity:1;stroke-width:2.09664"
       d="M 1541.0319,638.10407 C 874.48749,534.03413 881.49241,535.13876 882.39042,534.24076 883.5559,533.07528 1580.635,424.57002 1586.957,424.57002 c 3.017,0 3.346,9.86758 3.346,100.34619 0,107.72202 -0.6171,119.92043 -6.0507,119.60442 -1.8613,-0.10818 -21.3104,-2.99568 -43.2204,-6.41656 z"
       id="path3310"
       transform="matrix(7.5,0,0,-7.5,0,12800)" />
    <path
       style="fill:#f49701;fill-opacity:1;stroke-width:2.09664"
       d="m 115.58115,1280.985 c -2.00833,-5.2336 -1.5648,-218.6334 0.457,-219.8829 1.79606,-1.1101 25.60353,2.5252 458.44178,70.0013 133.76577,20.8531 247.45619,38.5399 252.64538,39.3041 l 9.43489,1.3895 -9.43489,1.6802 c -6.70844,1.1946 -600.75562,93.607 -691.89189,107.6335 -4.03604,0.6211 -9.81322,1.6175 -12.83818,2.2142 -3.85997,0.7613 -5.89178,0.064 -6.81409,-2.3399 z"
       id="path4764"
       transform="matrix(7.5,0,0,-7.5,0,12800)" />
    <path
       style="fill:#fea10b;fill-opacity:1;stroke-width:2.09664"
       d="m 281.15927,1482.6679 c -5.40706,-13.765 -66.59899,-203.0247 -65.86721,-203.7198 1.46648,-1.393 47.94792,-9.0713 317.25503,-52.4077 154.52253,-24.8655 307.21493,-49.5012 339.31645,-54.7461 32.10152,-5.2448 58.73229,-9.1701 59.17946,-8.7229 0.71938,0.7194 -97.52201,50.6396 -531.89085,270.2745 l -114.60426,57.9486 z"
       id="path6287"
       transform="matrix(7.5,0,0,-7.5,0,12800)" />
    <path
       style="fill:#fea920;fill-opacity:1;stroke-width:2.09664"
       d="m 488.63929,1608.5897 c -35.45958,-48.4662 -90.14666,-124.1888 -100.14605,-138.6674 l -10.01439,-14.5003 5.74829,-3.476 c 7.66744,-4.6365 290.95978,-150.5008 549.52257,-282.9435 47.68846,-24.4273 87.04589,-44.0737 87.46089,-43.6586 0.4151,0.415 -48.98112,50.2362 -109.76931,110.7137 -60.78822,60.4775 -175.64039,174.8301 -255.22706,254.117 -79.58667,79.2868 -145.63089,144.1314 -146.76494,144.099 -1.13405,-0.033 -10.49855,-11.5901 -20.81,-25.6839 z"
       id="path10714"
       transform="matrix(7.5,0,0,-7.5,0,12800)" />
    <path
       style="fill:#feb134;fill-opacity:1;stroke-width:2.09664"
       d="m 731.55659,1678.0459 c -63.11303,-45.1966 -141.1813,-102.5438 -142.49978,-104.6772 -0.70636,-1.1429 93.07471,-97.1025 208.4024,-213.2434 245.48069,-247.2118 300.13289,-301.8088 300.13289,-299.8296 0,0.8002 -62.3686,122.9738 -138.59696,271.4969 -188.18342,366.656 -186.76918,363.9099 -189.52954,368.023 -2.18417,3.2545 -6.12522,0.9914 -37.90901,-21.7697 z"
       id="path11511"
       transform="matrix(7.5,0,0,-7.5,0,12800)" />
    <path
       style="fill:#feb848;fill-opacity:1;stroke-width:2.09664"
       d="m 967.60033,1667.7435 c -35.17117,-11.4361 -82.10975,-26.6534 -104.30795,-33.8162 -22.19819,-7.1628 -40.36036,-13.9598 -40.36036,-15.1045 0,-2.1799 316.61948,-628.75202 323.24868,-639.69094 2.0965,-3.45946 3.8154,-5.43781 3.8196,-4.39633 0,1.04148 -17.0162,107.65577 -37.8234,236.92057 -85.1567,529.0367 -76.5764,477.2886 -79.0964,477.0347 -0.8429,-0.085 -30.309,-9.5112 -65.48017,-20.9473 z"
       id="path13034"
       transform="matrix(7.5,0,0,-7.5,0,12800)" />
    <path
       style="fill:#fec05d;fill-opacity:1;stroke-width:2.09664"
       d="m 1062.5307,1590.7068 c -1.983,-1.2599 -1.3734,-9.2059 2.6918,-35.0867 2.8904,-18.4019 26.4554,-169.7921 52.3666,-336.4227 58.6549,-377.20036 54.1704,-348.85116 54.8448,-346.70912 0.3137,0.99631 25.1062,159.84592 55.0944,352.99902 29.9881,193.1532 55.0279,354.1444 55.6438,357.7584 0.8217,4.821 0.2236,6.9148 -2.2459,7.8624 -4.9503,1.8996 -215.3826,1.5129 -218.3955,-0.4013 z"
       id="path13831"
       transform="matrix(7.5,0,0,-7.5,0,12800)" />
    <path
       style="fill:#fec871;fill-opacity:1;stroke-width:2.09664"
       d="m 1275.0147,1473.4012 c -6.7978,-37.5445 -112.5292,-697.19169 -111.8569,-697.86396 0.936,-0.93596 327.3317,644.06376 327.0536,646.29976 -0.1738,1.3968 -190.4193,64.4756 -207.3754,68.7585 -4.1789,1.0556 -4.7405,-0.1791 -7.8213,-17.1943 z"
       id="path14628"
       transform="matrix(7.5,0,0,-7.5,0,12800)" />
    <path
       style="fill:#fed085;fill-opacity:1;stroke-width:2.09664"
       d="m 1426.4535,1273.1737 c -99.4019,-191.1354 -302.0254,-586.80186 -301.0202,-587.80715 0.4564,-0.45635 115.6488,114.6888 255.9831,255.87813 l 255.1534,256.70782 -71.8803,52.1032 c -91.3002,66.1799 -108.0067,78.1699 -108.8979,78.1549 -0.3971,-0.01 -13.5992,-24.7733 -29.3381,-55.0369 z"
       id="path15425"
       transform="matrix(7.5,0,0,-7.5,0,12800)" />
    <path
       style="fill:#fee0ae;fill-opacity:1;stroke-width:2.09664"
       d="M 1315.6429,864.84847 C 1174.3817,724.29235 1059.5161,609.24298 1060.386,609.18321 c 0.87,-0.0598 17.8528,8.30066 37.7396,18.57875 19.8868,10.27809 163.5288,83.95757 319.2045,163.73218 155.6756,79.7746 283.8584,145.81631 284.8505,146.75936 1.3102,1.24534 -118.6394,170.0944 -128.3714,180.7041 -0.7302,0.7961 -116.905,-113.553 -258.1663,-254.10913 z"
       id="path16222"
       transform="matrix(7.5,0,0,-7.5,0,12800)" />
    <path
       style="fill:#fee0ae;fill-opacity:1;stroke-width:2.09664"
       d="M 1432.0066,790.27066 C 1047.4732,595.72562 973.75871,558.18779 974.6015,557.34499 c 0.95935,-0.95935 26.2276,3.04185 419.9726,66.50219 287.2734,46.30019 291.7963,47.04955 293.3489,48.60213 0.8483,0.84837 -10.9116,38.06602 -57.321,181.40818 -5.3203,16.43244 -10.6672,29.85048 -11.8821,29.81788 -1.2149,-0.0326 -85.2359,-42.06472 -186.7133,-93.40471 z"
       id="path17745"
       transform="matrix(7.5,0,0,-7.5,0,12800)" />
    <path
       style="fill:#fee7c2;fill-opacity:1;stroke-width:2.09664"
       d="M 1446.683,795.99994 C 1257.1609,700.53101 981.79369,560.84137 980.18018,559.35006 c -0.57658,-0.5329 2.25389,-0.40879 6.28993,0.27581 4.03603,0.6846 63.94759,10.25555 133.13679,21.26879 124.2598,19.77912 525.6024,84.56816 552.953,89.26359 13.7411,2.35903 14.0808,2.56843 12.7921,7.88523 -2.2935,9.46189 -61.3076,192.48578 -63.8986,198.17252 -1.3588,2.9821 -3.0266,5.40181 -3.7064,5.37711 -0.6798,-0.0247 -77.6585,-38.5416 -171.064,-85.59317 z"
       id="path17747"
       transform="matrix(7.5,0,0,-7.5,0,12800)" />
    <path
       style="fill:#fee7c2;fill-opacity:1;stroke-width:2.09664"
       d="m 1459.9834,1006.0442 c -166.4249,-164.30479 -391.6953,-389.33091 -390.725,-390.30123 0.9255,-0.92548 30.3691,14.04154 330.2502,167.87546 227,116.44715 295.8723,152.1291 298.5093,154.65417 2.0183,1.93273 -16.7953,29.96903 -69.6269,103.7585 -44.887,62.6934 -53.5248,74.3361 -55.189,74.388 -0.7569,0.023 -51.7053,-49.6452 -113.2186,-110.3749 z"
       id="path19203"
       transform="matrix(7.5,0,0,-7.5,0,12800)" />
    <path
       style="fill:#fee7c2;fill-opacity:1;stroke-width:2.09664"
       d="m 1522.5673,1066.9188 c -97.3151,-95.80899 -447.8583,-446.14322 -447.134,-446.8675 1.233,-1.23305 177.5119,88.54509 498.0966,253.67871 123.0913,63.40451 124.3169,64.0837 122.7947,68.05063 -4.0713,10.60949 -117.9333,170.61476 -122.4936,172.13486 -1.4497,0.4832 -24.5184,-20.6653 -51.2637,-46.9967 z"
       id="path19931"
       transform="matrix(7.5,0,0,-7.5,0,12800)" />
    <path
       style="fill:#fee7c2;fill-opacity:1;stroke-width:2.09664"
       d="m 1527.6623,1072.0119 c -82.8843,-81.18535 -452.9674,-451.22218 -452.1231,-452.06651 0.7551,-0.75513 156.38,77.49714 222.2823,111.76937 13.8378,7.19632 44.5012,22.98735 68.1408,35.09119 259.2913,132.7609 329.5661,169.47623 330.6587,172.75389 1.6838,5.05144 -118.2767,174.80546 -123.5302,174.80546 -1.2039,0 -21.6467,-19.059 -45.4285,-42.3534 z"
       id="path19933"
       transform="matrix(7.5,0,0,-7.5,0,12800)" />
    <path
       style="fill:#fee7c2;fill-opacity:1;stroke-width:2.09664"
       d="m 1534.9374,1079.3392 c -73.2394,-71.5796 -460.3947,-458.39729 -459.5964,-459.1956 1.0219,-1.02196 93.2424,45.00464 199.4174,99.52789 389.6176,200.07741 420.6553,216.26665 421.925,220.07581 1.7436,5.23066 -118.2147,174.618 -123.6626,174.618 -1.2348,0 -18.3724,-15.7618 -38.0834,-35.0261 z"
       id="path19935"
       transform="matrix(7.5,0,0,-7.5,0,12800)" />
    <path
       style="fill:#fee7c2;fill-opacity:1;stroke-width:2.09664"
       d="m 1543.3087,1087.6674 c -102.7421,-99.97625 -468.9882,-466.29645 -467.665,-467.75966 1.1474,-1.26887 230.6849,115.08783 404.5856,205.09175 17.2973,8.95238 65.5397,33.85225 107.2053,55.33304 88.007,45.37219 108.2282,56.35277 109.2122,59.30467 1.8489,5.5469 -117.8536,174.7281 -123.6272,174.7281 -1.2509,0 -14.6208,-12.0141 -29.7109,-26.6979 z"
       id="path19937"
       transform="matrix(7.5,0,0,-7.5,0,12800)" />
    <path
       style="fill:#fed085;fill-opacity:1;stroke-width:2.09664"
       d="m 1546.5548,1090.9041 c -52.9119,-50.8914 -472.1497,-469.8246 -471.1583,-470.816 1.1537,-1.15368 90.1674,43.3259 218.2317,109.04889 44.9729,23.08028 131.3022,67.38688 191.8427,98.4591 138.4853,71.07711 201.819,104.21848 207.8343,108.75576 l 4.7064,3.55003 -7.0667,11.65995 c -20.0727,33.11974 -113.7908,162.80347 -117.6526,162.80347 -1.2897,0 -13.3216,-10.5575 -26.7375,-23.4612 z"
       id="path19939"
       transform="matrix(7.5,0,0,-7.5,0,12800)" />
    <path
       style="display:inline;fill:#fee0ae;fill-opacity:1;stroke-width:2.09664"
       d="M 1432.0066,787.64428 C 1078.8984,609.94148 983.09416,560.96298 988.46842,560.892 c 1.67565,-0.0221 100.27028,15.57683 219.09908,34.66435 414.6951,66.61264 473.5512,76.34026 475.9262,78.66007 2.2215,2.16979 3.6853,-2.75505 -33.9195,114.12101 -28.4488,88.41917 -29.462,91.22859 -32.8755,91.15405 -1.2564,-0.0274 -84.3678,-41.35866 -184.6921,-91.8472 z"
       id="path21393"
       transform="matrix(7.5,0,0,-7.5,0,12800)" />
  </g>
</svg>
