<svg width="34" height="34" viewBox="0 0 34 34" fill="none" xmlns="http://www.w3.org/2000/svg">
<path d="M27.5839 28.9994C26.9271 27.2458 22.4389 24.1111 17 24.1111C11.5611 24.1111 7.07294 27.2458 6.41607 28.9994M27.5839 28.9994C30.9052 26.0677 33 21.7785 33 17C33 8.16344 25.8366 1 17 1C8.16344 1 1 8.16344 1 17C1 21.7785 3.09475 26.0677 6.41607 28.9994M27.5839 28.9994C24.7633 31.4892 21.0581 33 17 33C12.9419 33 9.23668 31.4892 6.41607 28.9994M22.3333 13.4444C22.3333 16.39 19.9455 18.7778 17 18.7778C14.0545 18.7778 11.6667 16.39 11.6667 13.4444C11.6667 10.4989 14.0545 8.11111 17 8.11111C19.9455 8.11111 22.3333 10.4989 22.3333 13.4444Z" stroke="#14213D" stroke-width="2"/>
</svg>
