<?xml version="1.0" encoding="UTF-8" standalone="no"?>
<svg
   version="1.0"
   width="1280.000000pt"
   height="1280.000000pt"
   viewBox="0 0 1280.000000 1280.000000"
   preserveAspectRatio="xMidYMid meet"
   id="svg352"
   sodipodi:docname="bg_spiral_dark.svg"
   inkscape:version="1.2 (dc2aedaf03, 2022-05-15)"
   xmlns:inkscape="http://www.inkscape.org/namespaces/inkscape"
   xmlns:sodipodi="http://sodipodi.sourceforge.net/DTD/sodipodi-0.dtd"
   xmlns="http://www.w3.org/2000/svg"
   xmlns:svg="http://www.w3.org/2000/svg">
  <defs
     id="defs356" />
  <sodipodi:namedview
     id="namedview354"
     pagecolor="#ffffff"
     bordercolor="#000000"
     borderopacity="0.25"
     inkscape:showpageshadow="2"
     inkscape:pageopacity="0.0"
     inkscape:pagecheckerboard="0"
     inkscape:deskcolor="#d1d1d1"
     inkscape:document-units="pt"
     showgrid="false"
     inkscape:zoom="0.47695313"
     inkscape:cx="701.32677"
     inkscape:cy="851.23668"
     inkscape:window-width="1920"
     inkscape:window-height="1017"
     inkscape:window-x="-8"
     inkscape:window-y="-8"
     inkscape:window-maximized="1"
     inkscape:current-layer="g350" />
  <metadata
     id="metadata308">
Created by potrace 1.15, written by Peter Selinger 2001-2017
</metadata>
  <g
     transform="translate(0.000000,1280.000000) scale(0.100000,-0.100000)"
     fill="#000000"
     stroke="none"
     id="g350">
    <path
       style="display:inline;fill:#7a7a7a;fill-opacity:1;stroke-width:2.09664"
       d="m 115.58115,1280.985 c -2.00833,-5.2336 -1.5648,-218.6334 0.457,-219.8829 1.79606,-1.1101 25.60353,2.5252 458.44178,70.0013 133.76577,20.8531 247.45619,38.5399 252.64538,39.3041 l 9.43489,1.3895 -9.43489,1.6802 c -6.70844,1.1946 -600.75562,93.607 -691.89189,107.6335 -4.03604,0.6211 -9.81322,1.6175 -12.83818,2.2142 -3.85997,0.7613 -5.89178,0.064 -6.81409,-2.3399 z"
       id="path4764"
       transform="matrix(7.5,0,0,-7.5,0,12800)" />
    <path
       style="display:inline;fill:#707070;fill-opacity:1;stroke-width:2.09664"
       d="m 281.15927,1482.6679 c -5.40706,-13.765 -66.59899,-203.0247 -65.86721,-203.7198 1.46648,-1.393 47.94792,-9.0713 317.25503,-52.4077 154.52253,-24.8655 307.21493,-49.5012 339.31645,-54.7461 32.10152,-5.2448 58.73229,-9.1701 59.17946,-8.7229 0.71938,0.7194 -97.52201,50.6396 -531.89085,270.2745 l -114.60426,57.9486 z"
       id="path6287"
       transform="matrix(7.5,0,0,-7.5,0,12800)" />
    <path
       style="display:inline;fill:#666666;fill-opacity:1;stroke-width:2.09664"
       d="m 488.63929,1608.5897 c -35.45958,-48.4662 -90.14666,-124.1888 -100.14605,-138.6674 l -10.01439,-14.5003 5.74829,-3.476 c 7.66744,-4.6365 290.95978,-150.5008 549.52257,-282.9435 47.68846,-24.4273 87.04589,-44.0737 87.46089,-43.6586 0.4151,0.415 -48.98112,50.2362 -109.76931,110.7137 -60.78822,60.4775 -175.64039,174.8301 -255.22706,254.117 -79.58667,79.2868 -145.63089,144.1314 -146.76494,144.099 -1.13405,-0.033 -10.49855,-11.5901 -20.81,-25.6839 z"
       id="path10714"
       transform="matrix(7.5,0,0,-7.5,0,12800)"
       inkscape:label="path10714" />
    <path
       style="display:inline;fill:#5c5c5c;fill-opacity:1;stroke-width:2.09664"
       d="m 731.55659,1678.0459 c -63.11303,-45.1966 -141.1813,-102.5438 -142.49978,-104.6772 -0.70636,-1.1429 93.07471,-97.1025 208.4024,-213.2434 245.48069,-247.2118 300.13289,-301.8088 300.13289,-299.8296 0,0.8002 -62.3686,122.9738 -138.59696,271.4969 -188.18342,366.656 -186.76918,363.9099 -189.52954,368.023 -2.18417,3.2545 -6.12522,0.9914 -37.90901,-21.7697 z"
       id="path11511"
       transform="matrix(7.5,0,0,-7.5,0,12800)" />
    <path
       style="display:inline;fill:#525252;fill-opacity:1;stroke-width:2.09664"
       d="m 967.60033,1667.7435 c -35.17117,-11.4361 -82.10975,-26.6534 -104.30795,-33.8162 -22.19819,-7.1628 -40.36036,-13.9598 -40.36036,-15.1045 0,-2.1799 316.61948,-628.75202 323.24868,-639.69094 2.0965,-3.45946 3.8154,-5.43781 3.8196,-4.39633 0,1.04148 -17.0162,107.65577 -37.8234,236.92057 -85.1567,529.0367 -76.5764,477.2886 -79.0964,477.0347 -0.8429,-0.085 -30.309,-9.5112 -65.48017,-20.9473 z"
       id="path13034"
       transform="matrix(7.5,0,0,-7.5,0,12800)"
       inkscape:label="path13034" />
    <path
       style="display:inline;fill:#474747;fill-opacity:1;stroke-width:2.09664"
       d="m 1062.5307,1590.7068 c -1.983,-1.2599 -1.3734,-9.2059 2.6918,-35.0867 2.8904,-18.4019 26.4554,-169.7921 52.3666,-336.4227 58.6549,-377.20036 54.1704,-348.85116 54.8448,-346.70912 0.3137,0.99631 25.1062,159.84592 55.0944,352.99902 29.9881,193.1532 55.0279,354.1444 55.6438,357.7584 0.8217,4.821 0.2236,6.9148 -2.2459,7.8624 -4.9503,1.8996 -215.3826,1.5129 -218.3955,-0.4013 z"
       id="path13831"
       transform="matrix(7.5,0,0,-7.5,0,12800)" />
    <path
       style="display:inline;fill:#3d3d3d;fill-opacity:1;stroke-width:2.09664"
       d="m 1275.0147,1473.4012 c -6.7978,-37.5445 -112.5292,-697.19169 -111.8569,-697.86396 0.936,-0.93596 327.3317,644.06376 327.0536,646.29976 -0.1738,1.3968 -190.4193,64.4756 -207.3754,68.7585 -4.1789,1.0556 -4.7405,-0.1791 -7.8213,-17.1943 z"
       id="path14628"
       transform="matrix(7.5,0,0,-7.5,0,12800)" />
    <path
       style="display:inline;fill:#333333;fill-opacity:1;stroke-width:2.09664"
       d="m 1426.4535,1273.1737 c -99.4019,-191.1354 -302.0254,-586.80186 -301.0202,-587.80715 0.4564,-0.45635 115.6488,114.6888 255.9831,255.87813 l 255.1534,256.70782 -71.8803,52.1032 c -91.3002,66.1799 -108.0067,78.1699 -108.8979,78.1549 -0.3971,-0.01 -13.5992,-24.7733 -29.3381,-55.0369 z"
       id="path15425"
       transform="matrix(7.5,0,0,-7.5,0,12800)" />
    <path
       style="display:inline;fill:#292929;fill-opacity:1;stroke-width:2.09664"
       d="m 1546.5548,1090.9041 c -52.9119,-50.8914 -472.1497,-469.8246 -471.1583,-470.816 1.1537,-1.15368 90.1674,43.3259 218.2317,109.04889 44.9729,23.08028 131.3022,67.38688 191.8427,98.4591 138.4853,71.07711 201.819,104.21848 207.8343,108.75576 l 4.7064,3.55003 -7.0667,11.65995 c -20.0727,33.11974 -113.7908,162.80347 -117.6526,162.80347 -1.2897,0 -13.3216,-10.5575 -26.7375,-23.4612 z"
       id="path19939"
       transform="matrix(7.5,0,0,-7.5,0,12800)" />
    <path
       style="display:inline;fill:#1f1f1f;fill-opacity:1;stroke-width:2.09664"
       d="M 1432.0066,787.64428 C 1078.8984,609.94148 983.09416,560.96298 988.46842,560.892 c 1.67565,-0.0221 100.27028,15.57683 219.09908,34.66435 414.6951,66.61264 473.5512,76.34026 475.9262,78.66007 2.2215,2.16979 3.6853,-2.75505 -33.9195,114.12101 -28.4488,88.41917 -29.462,91.22859 -32.8755,91.15405 -1.2564,-0.0274 -84.3678,-41.35866 -184.6921,-91.8472 z"
       id="path21393"
       transform="matrix(7.5,0,0,-7.5,0,12800)"
       inkscape:label="path21393" />
    <path
       style="display:inline;fill:#1a1a1a;fill-opacity:1;stroke-width:2.09664"
       d="M 1541.0319,638.10407 C 874.48749,534.03413 881.49241,535.13876 882.39042,534.24076 883.5559,533.07528 1580.635,424.57002 1586.957,424.57002 c 3.017,0 3.346,9.86758 3.346,100.34619 0,107.72202 -0.6171,119.92043 -6.0507,119.60442 -1.8613,-0.10818 -21.3104,-2.99568 -43.2204,-6.41656 z"
       id="path3310"
       transform="matrix(7.5,0,0,-7.5,0,12800)" />
    <path
       style="display:inline;fill:#171717;fill-opacity:1;stroke-width:2.09664"
       d="m 774.88397,543.2788 c 2.66911,-2.44372 226.45653,-116.2609 484.66113,-246.49627 l 163.0014,-82.21595 2.3349,5.93538 c 4.2042,10.68669 66.8795,203.53701 66.8795,205.78641 0,1.2058 -1.6512,2.69852 -3.6692,3.31716 -2.018,0.61864 -68.7698,11.57107 -148.3374,24.33876 -79.5676,12.76767 -205.9951,33.11536 -280.95,45.21709 -264.71187,42.7386 -286.03291,46.05159 -283.92033,44.11742 z"
       id="path1303"
       inkscape:label="path1303"
       sodipodi:insensitive="true"
       transform="matrix(7.5,0,0,-7.5,0,12800)" />
  </g>
</svg>
