<svg width="68" height="80" viewBox="0 0 68 80" fill="none" xmlns="http://www.w3.org/2000/svg">
<path fill-rule="evenodd" clip-rule="evenodd" d="M36 35.7778C36 42.4864 25.1897 53.8564 21.3407 57.692C20.5915 58.4385 19.4085 58.4385 18.6593 57.692C14.8103 53.8564 4 42.4864 4 35.7778C4 27.6162 11.1634 21 20 21C28.8366 21 36 27.6162 36 35.7778ZM20 42.1111C23.7871 42.1111 26.8571 39.2756 26.8571 35.7778C26.8571 32.28 23.7871 29.4444 20 29.4444C16.2129 29.4444 13.1429 32.28 13.1429 35.7778C13.1429 39.2756 16.2129 42.1111 20 42.1111Z" stroke="#14213D" stroke-width="2" stroke-linecap="round" stroke-linejoin="round"/>
<line x1="66.5" y1="6.55671e-08" x2="66.5" y2="80" stroke="#14213D" stroke-width="3"/>
</svg>
