<svg width="34" height="40" viewBox="0 0 34 40" fill="none" xmlns="http://www.w3.org/2000/svg">
<path fill-rule="evenodd" clip-rule="evenodd" d="M33 15.7778C33 22.4864 22.1897 33.8564 18.3407 37.692C17.5915 38.4385 16.4085 38.4385 15.6593 37.692C11.8103 33.8564 1 22.4864 1 15.7778C1 7.61624 8.16344 1 17 1C25.8366 1 33 7.61624 33 15.7778ZM17 22.1111C20.7871 22.1111 23.8571 19.2756 23.8571 15.7778C23.8571 12.28 20.7871 9.44444 17 9.44444C13.2129 9.44444 10.1429 12.28 10.1429 15.7778C10.1429 19.2756 13.2129 22.1111 17 22.1111Z" stroke="#14213D" stroke-width="2" stroke-linecap="round" stroke-linejoin="round"/>
</svg>
