<svg width="68" height="80" viewBox="0 0 68 80" fill="none" xmlns="http://www.w3.org/2000/svg">
<line x1="66.5" y1="6.55671e-08" x2="66.5" y2="80" stroke="#14213D" stroke-width="3"/>
<path d="M29.5839 51.9994C28.9271 50.2458 24.4389 47.1111 19 47.1111C13.5611 47.1111 9.07294 50.2458 8.41607 51.9994M29.5839 51.9994C32.9052 49.0677 35 44.7785 35 40C35 31.1634 27.8366 24 19 24C10.1634 24 3 31.1634 3 40C3 44.7785 5.09475 49.0677 8.41607 51.9994M29.5839 51.9994C26.7633 54.4892 23.0581 56 19 56C14.9419 56 11.2367 54.4892 8.41607 51.9994M24.3333 36.4444C24.3333 39.39 21.9455 41.7778 19 41.7778C16.0545 41.7778 13.6667 39.39 13.6667 36.4444C13.6667 33.4989 16.0545 31.1111 19 31.1111C21.9455 31.1111 24.3333 33.4989 24.3333 36.4444Z" stroke="#14213D" stroke-width="2"/>
</svg>
