<svg width="67" height="80" viewBox="0 0 67 80" fill="none" xmlns="http://www.w3.org/2000/svg">
<line x1="65.5" y1="6.55671e-08" x2="65.5" y2="80" stroke="#14213D" stroke-width="3"/>
<path d="M3 28.6667H7M7 28.6667V25C7 23.8954 7.89543 23 9 23H33C34.1046 23 35 23.8954 35 25V55C35 56.1046 34.1046 57 33 57H9C7.89543 57 7 56.1046 7 55V51.3333M7 28.6667V36.2222M3 36.2222H7M7 36.2222V43.7778M3 43.7778H7M7 43.7778V51.3333M3 51.3333H7M25 34.3333C25 36.4197 23.2091 38.1111 21 38.1111C18.7909 38.1111 17 36.4197 17 34.3333C17 32.2469 18.7909 30.5556 21 30.5556C23.2091 30.5556 25 32.2469 25 34.3333ZM29 47.5556C29 49.642 25.4183 51.3333 21 51.3333C16.5817 51.3333 13 49.642 13 47.5556C13 45.4691 16.5817 43.7778 21 43.7778C25.4183 43.7778 29 45.4691 29 47.5556Z" stroke="#14213D" stroke-width="2" stroke-linecap="round" stroke-linejoin="round"/>
</svg>
