<svg width="34" height="36" viewBox="0 0 34 36" fill="none" xmlns="http://www.w3.org/2000/svg">
<path d="M1 6.66667H5M5 6.66667V3C5 1.89543 5.89543 1 7 1H31C32.1046 1 33 1.89543 33 3V33C33 34.1046 32.1046 35 31 35H7C5.89543 35 5 34.1046 5 33V29.3333M5 6.66667V14.2222M1 14.2222H5M5 14.2222V21.7778M1 21.7778H5M5 21.7778V29.3333M1 29.3333H5M23 12.3333C23 14.4197 21.2091 16.1111 19 16.1111C16.7909 16.1111 15 14.4197 15 12.3333C15 10.2469 16.7909 8.55556 19 8.55556C21.2091 8.55556 23 10.2469 23 12.3333ZM27 25.5556C27 27.642 23.4183 29.3333 19 29.3333C14.5817 29.3333 11 27.642 11 25.5556C11 23.4691 14.5817 21.7778 19 21.7778C23.4183 21.7778 27 23.4691 27 25.5556Z" stroke="#14213D" stroke-width="2" stroke-linecap="round" stroke-linejoin="round"/>
</svg>
